solid OpenSCAD_Model
  facet normal -0.555567 0.831472 0
    outer loop
      vertex -0.956708 2.3097 0
      vertex -1.76777 1.76777 1
      vertex -0.956708 2.3097 1
    endloop
  endfacet
  facet normal -0.555567 0.831472 0
    outer loop
      vertex -1.76777 1.76777 1
      vertex -0.956708 2.3097 0
      vertex -1.76777 1.76777 0
    endloop
  endfacet
  facet normal -0.831472 0.555567 0
    outer loop
      vertex -2.3097 0.956708 0
      vertex -1.76777 1.76777 1
      vertex -1.76777 1.76777 0
    endloop
  endfacet
  facet normal -0.831472 0.555567 0
    outer loop
      vertex -1.76777 1.76777 1
      vertex -2.3097 0.956708 0
      vertex -2.3097 0.956708 1
    endloop
  endfacet
  facet normal -0.195089 -0.980785 0
    outer loop
      vertex -0.956708 -2.3097 0
      vertex 0 -2.5 1
      vertex -0.956708 -2.3097 1
    endloop
  endfacet
  facet normal -0.195089 -0.980785 -0
    outer loop
      vertex 0 -2.5 1
      vertex -0.956708 -2.3097 0
      vertex 0 -2.5 0
    endloop
  endfacet
  facet normal 0.195089 -0.980785 0
    outer loop
      vertex 0 -2.5 0
      vertex 0.956708 -2.3097 1
      vertex 0 -2.5 1
    endloop
  endfacet
  facet normal 0.195089 -0.980785 0
    outer loop
      vertex 0.956708 -2.3097 1
      vertex 0 -2.5 0
      vertex 0.956708 -2.3097 0
    endloop
  endfacet
  facet normal 0.555567 -0.831472 0
    outer loop
      vertex 0.956708 -2.3097 0
      vertex 1.76777 -1.76777 1
      vertex 0.956708 -2.3097 1
    endloop
  endfacet
  facet normal 0.555567 -0.831472 0
    outer loop
      vertex 1.76777 -1.76777 1
      vertex 0.956708 -2.3097 0
      vertex 1.76777 -1.76777 0
    endloop
  endfacet
  facet normal 0.831472 -0.555567 0
    outer loop
      vertex 1.76777 -1.76777 1
      vertex 2.3097 -0.956708 0
      vertex 2.3097 -0.956708 1
    endloop
  endfacet
  facet normal 0.831472 -0.555567 0
    outer loop
      vertex 2.3097 -0.956708 0
      vertex 1.76777 -1.76777 1
      vertex 1.76777 -1.76777 0
    endloop
  endfacet
  facet normal -0.980785 0.195089 0
    outer loop
      vertex -2.5 0 0
      vertex -2.3097 0.956708 1
      vertex -2.3097 0.956708 0
    endloop
  endfacet
  facet normal -0.980785 0.195089 0
    outer loop
      vertex -2.3097 0.956708 1
      vertex -2.5 0 0
      vertex -2.5 0 1
    endloop
  endfacet
  facet normal 0.980785 -0.195089 0
    outer loop
      vertex 2.3097 -0.956708 1
      vertex 2.5 0 0
      vertex 2.5 0 1
    endloop
  endfacet
  facet normal 0.980785 -0.195089 0
    outer loop
      vertex 2.5 0 0
      vertex 2.3097 -0.956708 1
      vertex 2.3097 -0.956708 0
    endloop
  endfacet
  facet normal 0 0 -1
    outer loop
      vertex 1.47821 -0.612293 0
      vertex 2.3097 -0.956708 0
      vertex 1.76777 -1.76777 0
    endloop
  endfacet
  facet normal 0 0 -1
    outer loop
      vertex 2.3097 -0.956708 0
      vertex 1.47821 -0.612293 0
      vertex 2.5 0 0
    endloop
  endfacet
  facet normal -0 0 -1
    outer loop
      vertex 2.5 0 0
      vertex 1.47821 -0.612293 0
      vertex 1.6 0 0
    endloop
  endfacet
  facet normal 0 0 -1
    outer loop
      vertex 1.76777 -1.76777 0
      vertex 1.13137 -1.13137 0
      vertex 1.47821 -0.612293 0
    endloop
  endfacet
  facet normal 0 0 -1
    outer loop
      vertex 0.956708 -2.3097 0
      vertex 1.13137 -1.13137 0
      vertex 1.76777 -1.76777 0
    endloop
  endfacet
  facet normal 0 0 -1
    outer loop
      vertex 0.956708 -2.3097 0
      vertex 0.612293 -1.47821 0
      vertex 1.13137 -1.13137 0
    endloop
  endfacet
  facet normal 0 0 -1
    outer loop
      vertex 0 -2.5 0
      vertex 0.612293 -1.47821 0
      vertex 0.956708 -2.3097 0
    endloop
  endfacet
  facet normal 0 0 -1
    outer loop
      vertex 0 -2.5 0
      vertex 0 -1.6 0
      vertex 0.612293 -1.47821 0
    endloop
  endfacet
  facet normal 0 0 -1
    outer loop
      vertex 0 -2.5 0
      vertex -0.612293 -1.47821 0
      vertex 0 -1.6 0
    endloop
  endfacet
  facet normal 0 0 -1
    outer loop
      vertex -0.956708 -2.3097 0
      vertex -0.612293 -1.47821 0
      vertex 0 -2.5 0
    endloop
  endfacet
  facet normal 0 0 -1
    outer loop
      vertex -0.956708 -2.3097 0
      vertex -1.13137 -1.13137 0
      vertex -0.612293 -1.47821 0
    endloop
  endfacet
  facet normal 0 0 -1
    outer loop
      vertex -1.76777 -1.76777 0
      vertex -1.13137 -1.13137 0
      vertex -0.956708 -2.3097 0
    endloop
  endfacet
  facet normal 0 0 -1
    outer loop
      vertex -2.3097 -0.956708 0
      vertex -1.47821 -0.612293 0
      vertex -1.76777 -1.76777 0
    endloop
  endfacet
  facet normal -0 0 -1
    outer loop
      vertex -1.13137 -1.13137 0
      vertex -1.76777 -1.76777 0
      vertex -1.47821 -0.612293 0
    endloop
  endfacet
  facet normal 0 0 -1
    outer loop
      vertex -0.612293 1.47821 0
      vertex 0 2.5 0
      vertex 0 1.6 0
    endloop
  endfacet
  facet normal 0 0 -1
    outer loop
      vertex -0.612293 1.47821 0
      vertex -0.956708 2.3097 0
      vertex 0 2.5 0
    endloop
  endfacet
  facet normal 0 0 -1
    outer loop
      vertex -1.13137 1.13137 0
      vertex -0.956708 2.3097 0
      vertex -0.612293 1.47821 0
    endloop
  endfacet
  facet normal 0 0 -1
    outer loop
      vertex -1.76777 1.76777 0
      vertex -1.13137 1.13137 0
      vertex -1.47821 0.612293 0
    endloop
  endfacet
  facet normal 0 0 -1
    outer loop
      vertex -1.13137 1.13137 0
      vertex -1.76777 1.76777 0
      vertex -0.956708 2.3097 0
    endloop
  endfacet
  facet normal 0 0 -1
    outer loop
      vertex -2.3097 0.956708 0
      vertex -1.47821 0.612293 0
      vertex -1.6 0 0
    endloop
  endfacet
  facet normal -0 0 -1
    outer loop
      vertex -1.47821 -0.612293 0
      vertex -2.3097 -0.956708 0
      vertex -1.6 0 0
    endloop
  endfacet
  facet normal 0 0 -1
    outer loop
      vertex -2.5 0 0
      vertex -1.6 0 0
      vertex -2.3097 -0.956708 0
    endloop
  endfacet
  facet normal 0 0 -1
    outer loop
      vertex -1.47821 0.612293 0
      vertex -2.3097 0.956708 0
      vertex -1.76777 1.76777 0
    endloop
  endfacet
  facet normal 0 0 -1
    outer loop
      vertex -1.6 0 0
      vertex -2.5 0 0
      vertex -2.3097 0.956708 0
    endloop
  endfacet
  facet normal -0.195089 0.980785 0
    outer loop
      vertex 0 2.5 0
      vertex -0.956708 2.3097 1
      vertex 0 2.5 1
    endloop
  endfacet
  facet normal -0.195089 0.980785 0
    outer loop
      vertex -0.956708 2.3097 1
      vertex 0 2.5 0
      vertex -0.956708 2.3097 0
    endloop
  endfacet
  facet normal -0.831472 -0.555567 0
    outer loop
      vertex -1.76777 -1.76777 0
      vertex -2.3097 -0.956708 1
      vertex -2.3097 -0.956708 0
    endloop
  endfacet
  facet normal -0.831472 -0.555567 0
    outer loop
      vertex -2.3097 -0.956708 1
      vertex -1.76777 -1.76777 0
      vertex -1.76777 -1.76777 1
    endloop
  endfacet
  facet normal 0 0 1
    outer loop
      vertex 0 2.5 1
      vertex -0.765367 1.84776 1
      vertex 0 2 1
    endloop
  endfacet
  facet normal -0 0 1
    outer loop
      vertex -0.956708 2.3097 1
      vertex -0.765367 1.84776 1
      vertex 0 2.5 1
    endloop
  endfacet
  facet normal 0 0 1
    outer loop
      vertex -0.956708 2.3097 1
      vertex -1.41421 1.41421 1
      vertex -0.765367 1.84776 1
    endloop
  endfacet
  facet normal -0 0 1
    outer loop
      vertex -1.76777 1.76777 1
      vertex -1.41421 1.41421 1
      vertex -0.956708 2.3097 1
    endloop
  endfacet
  facet normal 0 0 1
    outer loop
      vertex -1.76777 1.76777 1
      vertex -1.84776 0.765367 1
      vertex -1.41421 1.41421 1
    endloop
  endfacet
  facet normal -0 0 1
    outer loop
      vertex -2.3097 0.956708 1
      vertex -1.84776 0.765367 1
      vertex -1.76777 1.76777 1
    endloop
  endfacet
  facet normal 0 0 1
    outer loop
      vertex -1.84776 0.765367 1
      vertex -2.3097 0.956708 1
      vertex -2 0 1
    endloop
  endfacet
  facet normal -0 0 1
    outer loop
      vertex 2 0 1
      vertex 2.3097 -0.956708 1
      vertex 2.5 0 1
    endloop
  endfacet
  facet normal -0 0 1
    outer loop
      vertex 1.84776 -0.765367 1
      vertex 2.3097 -0.956708 1
      vertex 2 0 1
    endloop
  endfacet
  facet normal 0 0 1
    outer loop
      vertex 1.84776 -0.765367 1
      vertex 1.76777 -1.76777 1
      vertex 2.3097 -0.956708 1
    endloop
  endfacet
  facet normal -0 0 1
    outer loop
      vertex 1.41421 -1.41421 1
      vertex 1.76777 -1.76777 1
      vertex 1.84776 -0.765367 1
    endloop
  endfacet
  facet normal 0 0 1
    outer loop
      vertex 1.41421 -1.41421 1
      vertex 0.956708 -2.3097 1
      vertex 1.76777 -1.76777 1
    endloop
  endfacet
  facet normal -0 0 1
    outer loop
      vertex 0.765367 -1.84776 1
      vertex 0.956708 -2.3097 1
      vertex 1.41421 -1.41421 1
    endloop
  endfacet
  facet normal -0 0 1
    outer loop
      vertex 0 -2 1
      vertex 0.956708 -2.3097 1
      vertex 0.765367 -1.84776 1
    endloop
  endfacet
  facet normal 0 0 1
    outer loop
      vertex 0 -2 1
      vertex 0 -2.5 1
      vertex 0.956708 -2.3097 1
    endloop
  endfacet
  facet normal 0 0 1
    outer loop
      vertex -0.765367 -1.84776 1
      vertex 0 -2.5 1
      vertex 0 -2 1
    endloop
  endfacet
  facet normal 0 0 1
    outer loop
      vertex -0.765367 -1.84776 1
      vertex -0.956708 -2.3097 1
      vertex 0 -2.5 1
    endloop
  endfacet
  facet normal 0 0 1
    outer loop
      vertex -1.41421 -1.41421 1
      vertex -0.956708 -2.3097 1
      vertex -0.765367 -1.84776 1
    endloop
  endfacet
  facet normal 0 0 1
    outer loop
      vertex -1.41421 -1.41421 1
      vertex -1.76777 -1.76777 1
      vertex -0.956708 -2.3097 1
    endloop
  endfacet
  facet normal 0 0 1
    outer loop
      vertex -1.84776 -0.765367 1
      vertex -1.76777 -1.76777 1
      vertex -1.41421 -1.41421 1
    endloop
  endfacet
  facet normal 0 0 1
    outer loop
      vertex -2.3097 -0.956708 1
      vertex -1.84776 -0.765367 1
      vertex -2 0 1
    endloop
  endfacet
  facet normal 0 0 1
    outer loop
      vertex -2.5 0 1
      vertex -2 0 1
      vertex -2.3097 0.956708 1
    endloop
  endfacet
  facet normal 0 0 1
    outer loop
      vertex -1.84776 -0.765367 1
      vertex -2.3097 -0.956708 1
      vertex -1.76777 -1.76777 1
    endloop
  endfacet
  facet normal 0 0 1
    outer loop
      vertex -2 0 1
      vertex -2.5 0 1
      vertex -2.3097 -0.956708 1
    endloop
  endfacet
  facet normal 0 0 -1
    outer loop
      vertex 1.6 0 1
      vertex 1.84776 0.765367 1
      vertex 2 0 1
    endloop
  endfacet
  facet normal 0 0 -1
    outer loop
      vertex 1.47821 0.612293 1
      vertex 1.84776 0.765367 1
      vertex 1.6 0 1
    endloop
  endfacet
  facet normal 0 0 -1
    outer loop
      vertex 1.47821 0.612293 1
      vertex 1.41421 1.41421 1
      vertex 1.84776 0.765367 1
    endloop
  endfacet
  facet normal 0 0 -1
    outer loop
      vertex 1.13137 1.13137 1
      vertex 1.41421 1.41421 1
      vertex 1.47821 0.612293 1
    endloop
  endfacet
  facet normal 0 0 -1
    outer loop
      vertex 1.13137 1.13137 1
      vertex 0.765367 1.84776 1
      vertex 1.41421 1.41421 1
    endloop
  endfacet
  facet normal 0 0 -1
    outer loop
      vertex 0.612293 1.47821 1
      vertex 0.765367 1.84776 1
      vertex 1.13137 1.13137 1
    endloop
  endfacet
  facet normal 0 0 -1
    outer loop
      vertex 0 1.6 1
      vertex 0.765367 1.84776 1
      vertex 0.612293 1.47821 1
    endloop
  endfacet
  facet normal -0 0 -1
    outer loop
      vertex 0.765367 1.84776 1
      vertex 0 1.6 1
      vertex 0 2 1
    endloop
  endfacet
  facet normal -0.980785 -0.195089 0
    outer loop
      vertex -2.3097 -0.956708 0
      vertex -2.5 0 1
      vertex -2.5 0 0
    endloop
  endfacet
  facet normal -0.980785 -0.195089 0
    outer loop
      vertex -2.5 0 1
      vertex -2.3097 -0.956708 0
      vertex -2.3097 -0.956708 1
    endloop
  endfacet
  facet normal -0.555567 -0.831472 0
    outer loop
      vertex -1.76777 -1.76777 0
      vertex -0.956708 -2.3097 1
      vertex -1.76777 -1.76777 1
    endloop
  endfacet
  facet normal -0.555567 -0.831472 -0
    outer loop
      vertex -0.956708 -2.3097 1
      vertex -1.76777 -1.76777 0
      vertex -0.956708 -2.3097 0
    endloop
  endfacet
  facet normal 0.980786 -0.195089 0
    outer loop
      vertex 1.84776 -0.765367 3
      vertex 2 0 1
      vertex 2 0 3
    endloop
  endfacet
  facet normal 0.980786 -0.195089 0
    outer loop
      vertex 2 0 1
      vertex 1.84776 -0.765367 3
      vertex 1.84776 -0.765367 1
    endloop
  endfacet
  facet normal -0.555576 -0.831465 0
    outer loop
      vertex -1.41421 -1.41421 1
      vertex -0.765367 -1.84776 3
      vertex -1.41421 -1.41421 3
    endloop
  endfacet
  facet normal -0.555576 -0.831465 -0
    outer loop
      vertex -0.765367 -1.84776 3
      vertex -1.41421 -1.41421 1
      vertex -0.765367 -1.84776 1
    endloop
  endfacet
  facet normal 0.831465 0.555576 0
    outer loop
      vertex 1.84776 0.765367 3
      vertex 1.41421 1.41421 1
      vertex 1.41421 1.41421 3
    endloop
  endfacet
  facet normal 0.831465 0.555576 0
    outer loop
      vertex 1.41421 1.41421 1
      vertex 1.84776 0.765367 3
      vertex 1.84776 0.765367 1
    endloop
  endfacet
  facet normal -0.555576 0.831465 0
    outer loop
      vertex -0.765367 1.84776 1
      vertex -1.41421 1.41421 3
      vertex -0.765367 1.84776 3
    endloop
  endfacet
  facet normal -0.555576 0.831465 0
    outer loop
      vertex -1.41421 1.41421 3
      vertex -0.765367 1.84776 1
      vertex -1.41421 1.41421 1
    endloop
  endfacet
  facet normal 0.980786 0.195089 0
    outer loop
      vertex 2 0 3
      vertex 1.84776 0.765367 1
      vertex 1.84776 0.765367 3
    endloop
  endfacet
  facet normal 0.980786 0.195089 0
    outer loop
      vertex 1.84776 0.765367 1
      vertex 2 0 3
      vertex 2 0 1
    endloop
  endfacet
  facet normal 0.555576 -0.831465 0
    outer loop
      vertex 0.765367 -1.84776 1
      vertex 1.41421 -1.41421 3
      vertex 0.765367 -1.84776 3
    endloop
  endfacet
  facet normal 0.555576 -0.831465 0
    outer loop
      vertex 1.41421 -1.41421 3
      vertex 0.765367 -1.84776 1
      vertex 1.41421 -1.41421 1
    endloop
  endfacet
  facet normal -0.831465 -0.555576 0
    outer loop
      vertex -1.41421 -1.41421 1
      vertex -1.84776 -0.765367 3
      vertex -1.84776 -0.765367 1
    endloop
  endfacet
  facet normal -0.831465 -0.555576 0
    outer loop
      vertex -1.84776 -0.765367 3
      vertex -1.41421 -1.41421 1
      vertex -1.41421 -1.41421 3
    endloop
  endfacet
  facet normal 0.831465 -0.555576 0
    outer loop
      vertex 1.41421 -1.41421 3
      vertex 1.84776 -0.765367 1
      vertex 1.84776 -0.765367 3
    endloop
  endfacet
  facet normal 0.831465 -0.555576 0
    outer loop
      vertex 1.84776 -0.765367 1
      vertex 1.41421 -1.41421 3
      vertex 1.41421 -1.41421 1
    endloop
  endfacet
  facet normal -0.195089 -0.980786 0
    outer loop
      vertex -0.765367 -1.84776 1
      vertex 0 -2 3
      vertex -0.765367 -1.84776 3
    endloop
  endfacet
  facet normal -0.195089 -0.980786 -0
    outer loop
      vertex 0 -2 3
      vertex -0.765367 -1.84776 1
      vertex 0 -2 1
    endloop
  endfacet
  facet normal 0.195089 -0.980786 0
    outer loop
      vertex 0 -2 1
      vertex 0.765367 -1.84776 3
      vertex 0 -2 3
    endloop
  endfacet
  facet normal 0.195089 -0.980786 0
    outer loop
      vertex 0.765367 -1.84776 3
      vertex 0 -2 1
      vertex 0.765367 -1.84776 1
    endloop
  endfacet
  facet normal 0 0 1
    outer loop
      vertex 1.6 0 3
      vertex 2 0 3
      vertex 1.84776 0.765367 3
    endloop
  endfacet
  facet normal 0 0 1
    outer loop
      vertex 2 0 3
      vertex 1.6 0 3
      vertex 1.84776 -0.765367 3
    endloop
  endfacet
  facet normal 0 0 1
    outer loop
      vertex 1.84776 0.765367 3
      vertex 1.47821 0.612293 3
      vertex 1.6 0 3
    endloop
  endfacet
  facet normal 0 0 1
    outer loop
      vertex 1.41421 1.41421 3
      vertex 1.47821 0.612293 3
      vertex 1.84776 0.765367 3
    endloop
  endfacet
  facet normal 0 0 1
    outer loop
      vertex 1.41421 1.41421 3
      vertex 1.13137 1.13137 3
      vertex 1.47821 0.612293 3
    endloop
  endfacet
  facet normal 0 0 1
    outer loop
      vertex 0.765367 1.84776 3
      vertex 1.13137 1.13137 3
      vertex 1.41421 1.41421 3
    endloop
  endfacet
  facet normal 0 0 1
    outer loop
      vertex 0.765367 1.84776 3
      vertex 0.612293 1.47821 3
      vertex 1.13137 1.13137 3
    endloop
  endfacet
  facet normal 0 0 1
    outer loop
      vertex 0 2 3
      vertex 0.612293 1.47821 3
      vertex 0.765367 1.84776 3
    endloop
  endfacet
  facet normal 0 0 1
    outer loop
      vertex 0 2 3
      vertex 0 1.6 3
      vertex 0.612293 1.47821 3
    endloop
  endfacet
  facet normal 0 0 1
    outer loop
      vertex 0 2 3
      vertex -0.612293 1.47821 3
      vertex 0 1.6 3
    endloop
  endfacet
  facet normal -0 0 1
    outer loop
      vertex -0.765367 1.84776 3
      vertex -0.612293 1.47821 3
      vertex 0 2 3
    endloop
  endfacet
  facet normal 0 0 1
    outer loop
      vertex -0.765367 1.84776 3
      vertex -1.13137 1.13137 3
      vertex -0.612293 1.47821 3
    endloop
  endfacet
  facet normal -0 0 1
    outer loop
      vertex -1.41421 1.41421 3
      vertex -1.13137 1.13137 3
      vertex -0.765367 1.84776 3
    endloop
  endfacet
  facet normal 0 0 1
    outer loop
      vertex -1.41421 1.41421 3
      vertex -1.47821 0.612293 3
      vertex -1.13137 1.13137 3
    endloop
  endfacet
  facet normal -0 0 1
    outer loop
      vertex -1.84776 0.765367 3
      vertex -1.47821 0.612293 3
      vertex -1.41421 1.41421 3
    endloop
  endfacet
  facet normal 0 0 1
    outer loop
      vertex -1.47821 0.612293 3
      vertex -1.84776 0.765367 3
      vertex -1.6 0 3
    endloop
  endfacet
  facet normal -0 0 1
    outer loop
      vertex 1.47821 -0.612293 3
      vertex 1.84776 -0.765367 3
      vertex 1.6 0 3
    endloop
  endfacet
  facet normal 0 0 1
    outer loop
      vertex 1.47821 -0.612293 3
      vertex 1.41421 -1.41421 3
      vertex 1.84776 -0.765367 3
    endloop
  endfacet
  facet normal -0 0 1
    outer loop
      vertex 1.13137 -1.13137 3
      vertex 1.41421 -1.41421 3
      vertex 1.47821 -0.612293 3
    endloop
  endfacet
  facet normal 0 0 1
    outer loop
      vertex 1.13137 -1.13137 3
      vertex 0.765367 -1.84776 3
      vertex 1.41421 -1.41421 3
    endloop
  endfacet
  facet normal -0 0 1
    outer loop
      vertex 0.612293 -1.47821 3
      vertex 0.765367 -1.84776 3
      vertex 1.13137 -1.13137 3
    endloop
  endfacet
  facet normal -0 0 1
    outer loop
      vertex 0 -1.6 3
      vertex 0.765367 -1.84776 3
      vertex 0.612293 -1.47821 3
    endloop
  endfacet
  facet normal 0 0 1
    outer loop
      vertex 0 -1.6 3
      vertex 0 -2 3
      vertex 0.765367 -1.84776 3
    endloop
  endfacet
  facet normal 0 0 1
    outer loop
      vertex -0.612293 -1.47821 3
      vertex 0 -2 3
      vertex 0 -1.6 3
    endloop
  endfacet
  facet normal 0 0 1
    outer loop
      vertex -0.612293 -1.47821 3
      vertex -0.765367 -1.84776 3
      vertex 0 -2 3
    endloop
  endfacet
  facet normal 0 0 1
    outer loop
      vertex -1.13137 -1.13137 3
      vertex -0.765367 -1.84776 3
      vertex -0.612293 -1.47821 3
    endloop
  endfacet
  facet normal 0 0 1
    outer loop
      vertex -1.13137 -1.13137 3
      vertex -1.41421 -1.41421 3
      vertex -0.765367 -1.84776 3
    endloop
  endfacet
  facet normal 0 0 1
    outer loop
      vertex -1.47821 -0.612293 3
      vertex -1.41421 -1.41421 3
      vertex -1.13137 -1.13137 3
    endloop
  endfacet
  facet normal 0 0 1
    outer loop
      vertex -1.84776 -0.765367 3
      vertex -1.47821 -0.612293 3
      vertex -1.6 0 3
    endloop
  endfacet
  facet normal 0 0 1
    outer loop
      vertex -2 0 3
      vertex -1.6 0 3
      vertex -1.84776 0.765367 3
    endloop
  endfacet
  facet normal 0 0 1
    outer loop
      vertex -1.47821 -0.612293 3
      vertex -1.84776 -0.765367 3
      vertex -1.41421 -1.41421 3
    endloop
  endfacet
  facet normal 0 0 1
    outer loop
      vertex -1.6 0 3
      vertex -2 0 3
      vertex -1.84776 -0.765367 3
    endloop
  endfacet
  facet normal -0.831465 0.555576 0
    outer loop
      vertex -1.84776 0.765367 1
      vertex -1.41421 1.41421 3
      vertex -1.41421 1.41421 1
    endloop
  endfacet
  facet normal -0.831465 0.555576 0
    outer loop
      vertex -1.41421 1.41421 3
      vertex -1.84776 0.765367 1
      vertex -1.84776 0.765367 3
    endloop
  endfacet
  facet normal -0.195089 0.980786 0
    outer loop
      vertex 0 2 1
      vertex -0.765367 1.84776 3
      vertex 0 2 3
    endloop
  endfacet
  facet normal -0.195089 0.980786 0
    outer loop
      vertex -0.765367 1.84776 3
      vertex 0 2 1
      vertex -0.765367 1.84776 1
    endloop
  endfacet
  facet normal 0.195089 0.980786 -0
    outer loop
      vertex 0.765367 1.84776 1
      vertex 0 2 3
      vertex 0.765367 1.84776 3
    endloop
  endfacet
  facet normal 0.195089 0.980786 0
    outer loop
      vertex 0 2 3
      vertex 0.765367 1.84776 1
      vertex 0 2 1
    endloop
  endfacet
  facet normal -0.980786 -0.195089 0
    outer loop
      vertex -1.84776 -0.765367 1
      vertex -2 0 3
      vertex -2 0 1
    endloop
  endfacet
  facet normal -0.980786 -0.195089 0
    outer loop
      vertex -2 0 3
      vertex -1.84776 -0.765367 1
      vertex -1.84776 -0.765367 3
    endloop
  endfacet
  facet normal -0.980786 0.195089 0
    outer loop
      vertex -2 0 1
      vertex -1.84776 0.765367 3
      vertex -1.84776 0.765367 1
    endloop
  endfacet
  facet normal -0.980786 0.195089 0
    outer loop
      vertex -1.84776 0.765367 3
      vertex -2 0 1
      vertex -2 0 3
    endloop
  endfacet
  facet normal 0.555576 0.831465 -0
    outer loop
      vertex 1.41421 1.41421 1
      vertex 0.765367 1.84776 3
      vertex 1.41421 1.41421 3
    endloop
  endfacet
  facet normal 0.555576 0.831465 0
    outer loop
      vertex 0.765367 1.84776 3
      vertex 1.41421 1.41421 1
      vertex 0.765367 1.84776 1
    endloop
  endfacet
  facet normal 0.555574 -0.831467 0
    outer loop
      vertex -1.13137 1.13137 0
      vertex -0.612293 1.47821 3
      vertex -1.13137 1.13137 3
    endloop
  endfacet
  facet normal 0.555574 -0.831467 0
    outer loop
      vertex -0.612293 1.47821 3
      vertex -1.13137 1.13137 0
      vertex -0.612293 1.47821 0
    endloop
  endfacet
  facet normal -0.831467 -0.555574 0
    outer loop
      vertex 1.47821 0.612293 1
      vertex 1.13137 1.13137 3
      vertex 1.13137 1.13137 1
    endloop
  endfacet
  facet normal -0.831467 -0.555574 0
    outer loop
      vertex 1.13137 1.13137 3
      vertex 1.47821 0.612293 1
      vertex 1.47821 0.612293 3
    endloop
  endfacet
  facet normal -0.980786 -0.195086 0
    outer loop
      vertex 1.6 0 1
      vertex 1.47821 0.612293 3
      vertex 1.47821 0.612293 1
    endloop
  endfacet
  facet normal -0.980786 -0.195086 0
    outer loop
      vertex 1.47821 0.612293 3
      vertex 1.6 0 1
      vertex 1.6 0 3
    endloop
  endfacet
  facet normal 0.831467 -0.555574 0
    outer loop
      vertex -1.47821 0.612293 3
      vertex -1.13137 1.13137 0
      vertex -1.13137 1.13137 3
    endloop
  endfacet
  facet normal 0.831467 -0.555574 0
    outer loop
      vertex -1.13137 1.13137 0
      vertex -1.47821 0.612293 3
      vertex -1.47821 0.612293 0
    endloop
  endfacet
  facet normal 0.195086 0.980786 -0
    outer loop
      vertex 0 -1.6 0
      vertex -0.612293 -1.47821 3
      vertex 0 -1.6 3
    endloop
  endfacet
  facet normal 0.195086 0.980786 0
    outer loop
      vertex -0.612293 -1.47821 3
      vertex 0 -1.6 0
      vertex -0.612293 -1.47821 0
    endloop
  endfacet
  facet normal -0.195086 0.980786 0
    outer loop
      vertex 0.612293 -1.47821 0
      vertex 0 -1.6 3
      vertex 0.612293 -1.47821 3
    endloop
  endfacet
  facet normal -0.195086 0.980786 0
    outer loop
      vertex 0 -1.6 3
      vertex 0.612293 -1.47821 0
      vertex 0 -1.6 0
    endloop
  endfacet
  facet normal -0.555574 0.831467 0
    outer loop
      vertex 1.13137 -1.13137 0
      vertex 0.612293 -1.47821 3
      vertex 1.13137 -1.13137 3
    endloop
  endfacet
  facet normal -0.555574 0.831467 0
    outer loop
      vertex 0.612293 -1.47821 3
      vertex 1.13137 -1.13137 0
      vertex 0.612293 -1.47821 0
    endloop
  endfacet
  facet normal -0.831467 0.555574 0
    outer loop
      vertex 1.13137 -1.13137 0
      vertex 1.47821 -0.612293 3
      vertex 1.47821 -0.612293 0
    endloop
  endfacet
  facet normal -0.831467 0.555574 0
    outer loop
      vertex 1.47821 -0.612293 3
      vertex 1.13137 -1.13137 0
      vertex 1.13137 -1.13137 3
    endloop
  endfacet
  facet normal 0.980786 -0.195086 0
    outer loop
      vertex -1.6 0 3
      vertex -1.47821 0.612293 0
      vertex -1.47821 0.612293 3
    endloop
  endfacet
  facet normal 0.980786 -0.195086 0
    outer loop
      vertex -1.47821 0.612293 0
      vertex -1.6 0 3
      vertex -1.6 0 0
    endloop
  endfacet
  facet normal -0.980786 0.195086 0
    outer loop
      vertex 1.47821 -0.612293 0
      vertex 1.6 0 1
      vertex 1.6 0 0
    endloop
  endfacet
  facet normal -0.980786 0.195086 0
    outer loop
      vertex 1.47821 -0.612293 3
      vertex 1.6 0 1
      vertex 1.47821 -0.612293 0
    endloop
  endfacet
  facet normal -0.980786 0.195086 0
    outer loop
      vertex 1.6 0 1
      vertex 1.47821 -0.612293 3
      vertex 1.6 0 3
    endloop
  endfacet
  facet normal 0.195086 -0.980786 0
    outer loop
      vertex -0.612293 1.47821 3
      vertex 0 1.6 1
      vertex 0 1.6 3
    endloop
  endfacet
  facet normal 0.195086 -0.980786 0
    outer loop
      vertex -0.612293 1.47821 0
      vertex 0 1.6 1
      vertex -0.612293 1.47821 3
    endloop
  endfacet
  facet normal 0.195086 -0.980786 0
    outer loop
      vertex 0 1.6 1
      vertex -0.612293 1.47821 0
      vertex 0 1.6 0
    endloop
  endfacet
  facet normal -0.195086 -0.980786 0
    outer loop
      vertex 0 1.6 1
      vertex 0.612293 1.47821 3
      vertex 0 1.6 3
    endloop
  endfacet
  facet normal -0.195086 -0.980786 -0
    outer loop
      vertex 0.612293 1.47821 3
      vertex 0 1.6 1
      vertex 0.612293 1.47821 1
    endloop
  endfacet
  facet normal 0.831467 0.555574 0
    outer loop
      vertex -1.13137 -1.13137 3
      vertex -1.47821 -0.612293 0
      vertex -1.47821 -0.612293 3
    endloop
  endfacet
  facet normal 0.831467 0.555574 0
    outer loop
      vertex -1.47821 -0.612293 0
      vertex -1.13137 -1.13137 3
      vertex -1.13137 -1.13137 0
    endloop
  endfacet
  facet normal -0.555574 -0.831467 0
    outer loop
      vertex 0.612293 1.47821 1
      vertex 1.13137 1.13137 3
      vertex 0.612293 1.47821 3
    endloop
  endfacet
  facet normal -0.555574 -0.831467 -0
    outer loop
      vertex 1.13137 1.13137 3
      vertex 0.612293 1.47821 1
      vertex 1.13137 1.13137 1
    endloop
  endfacet
  facet normal 0.980786 0.195086 0
    outer loop
      vertex -1.47821 -0.612293 3
      vertex -1.6 0 0
      vertex -1.6 0 3
    endloop
  endfacet
  facet normal 0.980786 0.195086 0
    outer loop
      vertex -1.6 0 0
      vertex -1.47821 -0.612293 3
      vertex -1.47821 -0.612293 0
    endloop
  endfacet
  facet normal 0.555574 0.831467 -0
    outer loop
      vertex -0.612293 -1.47821 0
      vertex -1.13137 -1.13137 3
      vertex -0.612293 -1.47821 3
    endloop
  endfacet
  facet normal 0.555574 0.831467 0
    outer loop
      vertex -1.13137 -1.13137 3
      vertex -0.612293 -1.47821 0
      vertex -1.13137 -1.13137 0
    endloop
  endfacet
  facet normal 1 -0 0
    outer loop
      vertex 0 2 1
      vertex 0 2.5 0
      vertex 0 2.5 1
    endloop
  endfacet
  facet normal 1 0 0
    outer loop
      vertex 0 1.6 0
      vertex 0 2 1
      vertex 0 1.6 1
    endloop
  endfacet
  facet normal 1 0 0
    outer loop
      vertex 0 2 1
      vertex 0 1.6 0
      vertex 0 2.5 0
    endloop
  endfacet
  facet normal 0 1 -0
    outer loop
      vertex 2.5 0 0
      vertex 2 0 1
      vertex 2.5 0 1
    endloop
  endfacet
  facet normal 0 1 0
    outer loop
      vertex 1.6 0 0
      vertex 2 0 1
      vertex 2.5 0 0
    endloop
  endfacet
  facet normal 0 1 0
    outer loop
      vertex 2 0 1
      vertex 1.6 0 0
      vertex 1.6 0 1
    endloop
  endfacet
endsolid OpenSCAD_Model
