solid OpenSCAD_Model
  facet normal -1 0 0
    outer loop
      vertex 8.5 5 11
      vertex 8.5 24 12
      vertex 8.5 24 11
    endloop
  endfacet
  facet normal -1 -0 0
    outer loop
      vertex 8.5 24 12
      vertex 8.5 5 11
      vertex 8.5 5 12
    endloop
  endfacet
  facet normal 0 0 -1
    outer loop
      vertex 7.97688 7.5 12
      vertex 8.5 5 12
      vertex 7.97688 6.5 12
    endloop
  endfacet
  facet normal 0 0 -1
    outer loop
      vertex 8.5 5 12
      vertex 7.51506 6.5 12
      vertex 7.97688 6.5 12
    endloop
  endfacet
  facet normal 0 0 -1
    outer loop
      vertex 7.51506 6.5 12
      vertex 6.49074 6.5 12
      vertex 7.51506 7.5 12
    endloop
  endfacet
  facet normal 0 0 -1
    outer loop
      vertex 8.5 5 12
      vertex 6.49074 6.5 12
      vertex 7.51506 6.5 12
    endloop
  endfacet
  facet normal 0 0 -1
    outer loop
      vertex 8.5 5 12
      vertex 6.02892 6.5 12
      vertex 6.49074 6.5 12
    endloop
  endfacet
  facet normal -0 0 -1
    outer loop
      vertex 6.02892 6.5 12
      vertex 4 5 12
      vertex 6.02892 7.5 12
    endloop
  endfacet
  facet normal 0 0 -1
    outer loop
      vertex 4 5 12
      vertex 6.02892 6.5 12
      vertex 8.5 5 12
    endloop
  endfacet
  facet normal 0 0 -1
    outer loop
      vertex 8.5 5 12
      vertex 7.97688 7.5 12
      vertex 8.5 24 12
    endloop
  endfacet
  facet normal 0 0 -1
    outer loop
      vertex 7.51506 7.5 12
      vertex 8.5 24 12
      vertex 7.97688 7.5 12
    endloop
  endfacet
  facet normal 0 0 -1
    outer loop
      vertex 6.49074 7.5 12
      vertex 7.51506 7.5 12
      vertex 6.49074 6.5 12
    endloop
  endfacet
  facet normal 0 0 -1
    outer loop
      vertex 7.51506 7.5 12
      vertex 6.49074 7.5 12
      vertex 8.5 24 12
    endloop
  endfacet
  facet normal 0 0 -1
    outer loop
      vertex 6.02892 7.5 12
      vertex 8.5 24 12
      vertex 6.49074 7.5 12
    endloop
  endfacet
  facet normal 0 0 -1
    outer loop
      vertex 4 24 12
      vertex 6.02892 7.5 12
      vertex 4 5 12
    endloop
  endfacet
  facet normal 0 0 -1
    outer loop
      vertex 6.02892 7.5 12
      vertex 4 24 12
      vertex 8.5 24 12
    endloop
  endfacet
  facet normal 1 -0 0
    outer loop
      vertex 4 5 12
      vertex 4 24 9
      vertex 4 24 12
    endloop
  endfacet
  facet normal 1 0 0
    outer loop
      vertex 4 24 9
      vertex 4 5 12
      vertex 4 5 9
    endloop
  endfacet
  facet normal 0 -1 0
    outer loop
      vertex 0 24 9
      vertex 0 24 5
      vertex 4 24 9
    endloop
  endfacet
  facet normal 0 -1 0
    outer loop
      vertex 4 24 12
      vertex 6.37868 24 11.1213
      vertex 8.5 24 12
    endloop
  endfacet
  facet normal 0 -1 0
    outer loop
      vertex 4 24 12
      vertex 6.25736 24 11
      vertex 6.37868 24 11.1213
    endloop
  endfacet
  facet normal 0 -1 0
    outer loop
      vertex 4 24 9
      vertex 6.5 24 11
      vertex 6.25736 24 11
    endloop
  endfacet
  facet normal 0 -1 -0
    outer loop
      vertex 6.5 24 11
      vertex 4 24 9
      vertex 8.5 24 11
    endloop
  endfacet
  facet normal 0 -1 0
    outer loop
      vertex 4 24 9
      vertex 6.25736 24 11
      vertex 4 24 12
    endloop
  endfacet
  facet normal 0 -1 -0
    outer loop
      vertex 8.5 24 11
      vertex 4 24 9
      vertex 11.5 24 5
    endloop
  endfacet
  facet normal 0 -1 0
    outer loop
      vertex 11.5 24 5
      vertex 4 24 9
      vertex 0 24 5
    endloop
  endfacet
  facet normal 0 -1 0
    outer loop
      vertex 8.5 24 11
      vertex 11.5 24 5
      vertex 11.5 24 11
    endloop
  endfacet
  facet normal 0 -1 0
    outer loop
      vertex 6.5 24 11
      vertex 8.5 24 12
      vertex 6.37868 24 11.1213
    endloop
  endfacet
  facet normal 0 -1 -0
    outer loop
      vertex 8.5 24 12
      vertex 6.5 24 11
      vertex 8.5 24 11
    endloop
  endfacet
  facet normal 0 1 -0
    outer loop
      vertex 11.5 5 5
      vertex 8.5 5 11
      vertex 11.5 5 11
    endloop
  endfacet
  facet normal -0 1 0
    outer loop
      vertex 4 5 9
      vertex 8.5 5 11
      vertex 11.5 5 5
    endloop
  endfacet
  facet normal 0 1 0
    outer loop
      vertex 8.5 5 11
      vertex 4 5 9
      vertex 6.5 5 11
    endloop
  endfacet
  facet normal 0 1 0
    outer loop
      vertex 6.5 5 11
      vertex 4 5 9
      vertex 6.25736 5 11
    endloop
  endfacet
  facet normal 0 1 0
    outer loop
      vertex 0 5 5
      vertex 4 5 9
      vertex 11.5 5 5
    endloop
  endfacet
  facet normal 0 1 0
    outer loop
      vertex 4 5 9
      vertex 0 5 5
      vertex 0 5 9
    endloop
  endfacet
  facet normal 0 1 0
    outer loop
      vertex 8.5 5 12
      vertex 6.37868 5 11.1213
      vertex 4 5 12
    endloop
  endfacet
  facet normal 0 1 0
    outer loop
      vertex 6.5 5 11
      vertex 8.5 5 12
      vertex 8.5 5 11
    endloop
  endfacet
  facet normal 0 1 0
    outer loop
      vertex 8.5 5 12
      vertex 6.5 5 11
      vertex 6.37868 5 11.1213
    endloop
  endfacet
  facet normal 0 1 -0
    outer loop
      vertex 6.25736 5 11
      vertex 4 5 12
      vertex 6.37868 5 11.1213
    endloop
  endfacet
  facet normal 0 1 0
    outer loop
      vertex 4 5 12
      vertex 6.25736 5 11
      vertex 4 5 9
    endloop
  endfacet
  facet normal 0.706917 0 0.707296
    outer loop
      vertex 6.37868 6.5 11.1213
      vertex 6.37868 5 11.1213
      vertex 6.49074 6.5 11.0093
    endloop
  endfacet
  facet normal 0.707048 -0 0.707165
    outer loop
      vertex 6.37868 7.5 11.1213
      vertex 6.5 24 11
      vertex 6.37868 24 11.1213
    endloop
  endfacet
  facet normal 0.706917 1.92719e-06 0.707296
    outer loop
      vertex 6.49074 7.5 11.0093
      vertex 6.5 24 11
      vertex 6.37868 7.5 11.1213
    endloop
  endfacet
  facet normal 0.708629 -0 0.705581
    outer loop
      vertex 6.49074 6.5 11.0093
      vertex 6.5 24 11
      vertex 6.49074 7.5 11.0093
    endloop
  endfacet
  facet normal 0.708629 0 0.705581
    outer loop
      vertex 6.49074 6.5 11.0093
      vertex 6.5 5 11
      vertex 6.5 24 11
    endloop
  endfacet
  facet normal 0.707048 -1.95774e-05 0.707165
    outer loop
      vertex 6.5 5 11
      vertex 6.49074 6.5 11.0093
      vertex 6.37868 5 11.1213
    endloop
  endfacet
  facet normal -0.707048 0 0.707165
    outer loop
      vertex 6.25736 7.5 11
      vertex 6.37868 24 11.1213
      vertex 6.25736 24 11
    endloop
  endfacet
  facet normal -0.707048 0 0.707165
    outer loop
      vertex 6.37868 24 11.1213
      vertex 6.25736 7.5 11
      vertex 6.37868 7.5 11.1213
    endloop
  endfacet
  facet normal -0.707048 0 0.707165
    outer loop
      vertex 6.25736 5 11
      vertex 6.37868 6.5 11.1213
      vertex 6.25736 6.5 11
    endloop
  endfacet
  facet normal -0.707048 0 0.707165
    outer loop
      vertex 6.37868 6.5 11.1213
      vertex 6.25736 5 11
      vertex 6.37868 5 11.1213
    endloop
  endfacet
  facet normal 1 -0 0
    outer loop
      vertex 19 0 21
      vertex 19 29 0
      vertex 19 29 21
    endloop
  endfacet
  facet normal 1 0 0
    outer loop
      vertex 19 29 0
      vertex 19 0 21
      vertex 19 0 0
    endloop
  endfacet
  facet normal -0 0 1
    outer loop
      vertex 0 29 21
      vertex 19 0 21
      vertex 19 29 21
    endloop
  endfacet
  facet normal 0 0 1
    outer loop
      vertex 19 0 21
      vertex 0 29 21
      vertex 0 0 21
    endloop
  endfacet
  facet normal 0 0 -1
    outer loop
      vertex 0 0 0
      vertex 19 29 0
      vertex 19 0 0
    endloop
  endfacet
  facet normal -0 0 -1
    outer loop
      vertex 19 29 0
      vertex 0 0 0
      vertex 0 29 0
    endloop
  endfacet
  facet normal -1 0 0
    outer loop
      vertex 0 24 9
      vertex 0 29 0
      vertex 0 24 5
    endloop
  endfacet
  facet normal -1 0 0
    outer loop
      vertex 0 29 0
      vertex 0 5 5
      vertex 0 24 5
    endloop
  endfacet
  facet normal -1 -0 0
    outer loop
      vertex 0 5 5
      vertex 0 0 0
      vertex 0 5 9
    endloop
  endfacet
  facet normal -1 0 0
    outer loop
      vertex 0 0 0
      vertex 0 5 5
      vertex 0 29 0
    endloop
  endfacet
  facet normal -1 0 0
    outer loop
      vertex 0 29 0
      vertex 0 24 9
      vertex 0 29 21
    endloop
  endfacet
  facet normal -1 0 0
    outer loop
      vertex 0 5 9
      vertex 0 29 21
      vertex 0 24 9
    endloop
  endfacet
  facet normal -1 0 0
    outer loop
      vertex 0 5 9
      vertex 0 0 21
      vertex 0 29 21
    endloop
  endfacet
  facet normal -1 0 0
    outer loop
      vertex 0 0 21
      vertex 0 5 9
      vertex 0 0 0
    endloop
  endfacet
  facet normal 0 1 -0
    outer loop
      vertex 19 29 0
      vertex 0 29 21
      vertex 19 29 21
    endloop
  endfacet
  facet normal 0 1 0
    outer loop
      vertex 0 29 21
      vertex 19 29 0
      vertex 0 29 0
    endloop
  endfacet
  facet normal 0 -1 0
    outer loop
      vertex 0 0 0
      vertex 19 0 21
      vertex 0 0 21
    endloop
  endfacet
  facet normal 0 -1 -0
    outer loop
      vertex 19 0 21
      vertex 0 0 0
      vertex 19 0 0
    endloop
  endfacet
  facet normal 0 0 -1
    outer loop
      vertex 0 5 9
      vertex 4 24 9
      vertex 4 5 9
    endloop
  endfacet
  facet normal -0 0 -1
    outer loop
      vertex 4 24 9
      vertex 0 5 9
      vertex 0 24 9
    endloop
  endfacet
  facet normal -0 0 1
    outer loop
      vertex 0 24 5
      vertex 11.5 5 5
      vertex 11.5 24 5
    endloop
  endfacet
  facet normal 0 0 1
    outer loop
      vertex 11.5 5 5
      vertex 0 24 5
      vertex 0 5 5
    endloop
  endfacet
  facet normal -1 0 0
    outer loop
      vertex 11.5 5 5
      vertex 11.5 24 11
      vertex 11.5 24 5
    endloop
  endfacet
  facet normal -1 -0 0
    outer loop
      vertex 11.5 24 11
      vertex 11.5 5 5
      vertex 11.5 5 11
    endloop
  endfacet
  facet normal 0 0 -1
    outer loop
      vertex 9.46303 7.5 11
      vertex 11.5 5 11
      vertex 9.46303 6.5 11
    endloop
  endfacet
  facet normal 0 0 -1
    outer loop
      vertex 8.5 5 11
      vertex 9.46303 6.5 11
      vertex 11.5 5 11
    endloop
  endfacet
  facet normal -0 0 -1
    outer loop
      vertex 9.00121 6.5 11
      vertex 8.5 5 11
      vertex 9.00121 7.5 11
    endloop
  endfacet
  facet normal -0 0 -1
    outer loop
      vertex 9.46303 6.5 11
      vertex 8.5 5 11
      vertex 9.00121 6.5 11
    endloop
  endfacet
  facet normal 0 0 -1
    outer loop
      vertex 11.5 5 11
      vertex 9.46303 7.5 11
      vertex 11.5 24 11
    endloop
  endfacet
  facet normal 0 0 -1
    outer loop
      vertex 8.5 24 11
      vertex 9.46303 7.5 11
      vertex 9.00121 7.5 11
    endloop
  endfacet
  facet normal 0 0 -1
    outer loop
      vertex 8.5 24 11
      vertex 9.00121 7.5 11
      vertex 8.5 5 11
    endloop
  endfacet
  facet normal 0 0 -1
    outer loop
      vertex 9.46303 7.5 11
      vertex 8.5 24 11
      vertex 11.5 24 11
    endloop
  endfacet
  facet normal 0 0 -1
    outer loop
      vertex 6.5 5 11
      vertex 6.49074 6.5 11
      vertex 6.5 24 11
    endloop
  endfacet
  facet normal 0 0 -1
    outer loop
      vertex 6.25736 5 11
      vertex 6.49074 6.5 11
      vertex 6.5 5 11
    endloop
  endfacet
  facet normal -0 0 -1
    outer loop
      vertex 6.49074 6.5 11
      vertex 6.25736 5 11
      vertex 6.25736 6.5 11
    endloop
  endfacet
  facet normal 0 0 -1
    outer loop
      vertex 6.49074 7.5 11
      vertex 6.5 24 11
      vertex 6.49074 6.5 11
    endloop
  endfacet
  facet normal 0 0 -1
    outer loop
      vertex 6.25736 7.5 11
      vertex 6.5 24 11
      vertex 6.49074 7.5 11
    endloop
  endfacet
  facet normal -0 0 -1
    outer loop
      vertex 6.5 24 11
      vertex 6.25736 7.5 11
      vertex 6.25736 24 11
    endloop
  endfacet
  facet normal -0 0 1
    outer loop
      vertex -47 23.5 8.5
      vertex 1 5.5 8.5
      vertex 1 23.5 8.5
    endloop
  endfacet
  facet normal 0 0 1
    outer loop
      vertex 1 5.5 8.5
      vertex -47 23.5 8.5
      vertex -47 5.5 8.5
    endloop
  endfacet
  facet normal 0 0 -1
    outer loop
      vertex -47 5.5 5.5
      vertex 1 23.5 5.5
      vertex 1 5.5 5.5
    endloop
  endfacet
  facet normal -0 0 -1
    outer loop
      vertex 1 23.5 5.5
      vertex -47 5.5 5.5
      vertex -47 23.5 5.5
    endloop
  endfacet
  facet normal 0 1 -0
    outer loop
      vertex 1 23.5 5.5
      vertex -47 23.5 8.5
      vertex 1 23.5 8.5
    endloop
  endfacet
  facet normal 0 1 0
    outer loop
      vertex -47 23.5 8.5
      vertex 1 23.5 5.5
      vertex -47 23.5 5.5
    endloop
  endfacet
  facet normal 0 -1 0
    outer loop
      vertex -47 5.5 5.5
      vertex 1 5.5 8.5
      vertex -47 5.5 8.5
    endloop
  endfacet
  facet normal 0 -1 -0
    outer loop
      vertex 1 5.5 8.5
      vertex -47 5.5 5.5
      vertex 1 5.5 5.5
    endloop
  endfacet
  facet normal 0 0 -1
    outer loop
      vertex 2.82843 5.5 5.5
      vertex 4.0359 23.5 5.5
      vertex 4.0359 5.5 5.5
    endloop
  endfacet
  facet normal -0 0 -1
    outer loop
      vertex 4.0359 23.5 5.5
      vertex 2.82843 5.5 5.5
      vertex 2.82843 23.5 5.5
    endloop
  endfacet
  facet normal 0 1 0
    outer loop
      vertex 4.0359 23.5 5.5
      vertex 2.82843 23.5 5.5
      vertex 3.59393 23.5 6.26551
    endloop
  endfacet
  facet normal 0 -1 -0
    outer loop
      vertex 3.59393 5.5 6.26551
      vertex 2.82843 5.5 5.5
      vertex 4.0359 5.5 5.5
    endloop
  endfacet
  facet normal -0.707111 0 0.707102
    outer loop
      vertex 2.82843 5.5 5.5
      vertex 3.59393 23.5 6.26551
      vertex 2.82843 23.5 5.5
    endloop
  endfacet
  facet normal -0.707111 0 0.707102
    outer loop
      vertex 3.59393 23.5 6.26551
      vertex 2.82843 5.5 5.5
      vertex 3.59393 5.5 6.26551
    endloop
  endfacet
  facet normal 0.866024 -0 0.500002
    outer loop
      vertex 3.59393 5.5 6.26551
      vertex 4.0359 23.5 5.5
      vertex 3.59393 23.5 6.26551
    endloop
  endfacet
  facet normal 0.866024 0 0.500002
    outer loop
      vertex 4.0359 23.5 5.5
      vertex 3.59393 5.5 6.26551
      vertex 4.0359 5.5 5.5
    endloop
  endfacet
  facet normal 0 1 0
    outer loop
      vertex 6.49074 7.5 11
      vertex 6.49074 7.5 10.517
      vertex 6.25736 7.5 11
    endloop
  endfacet
  facet normal 0 1 0
    outer loop
      vertex 6.49074 7.5 12
      vertex 6.37868 7.5 11.1213
      vertex 6.02892 7.5 12
    endloop
  endfacet
  facet normal -0 1 0
    outer loop
      vertex 6.37868 7.5 11.1213
      vertex 6.49074 7.5 12
      vertex 6.49074 7.5 11.0093
    endloop
  endfacet
  facet normal 0 1 -0
    outer loop
      vertex 6.25736 7.5 11
      vertex 6.02892 7.5 12
      vertex 6.37868 7.5 11.1213
    endloop
  endfacet
  facet normal 0 1 0
    outer loop
      vertex 6.25736 7.5 11
      vertex 6.02892 7.5 10.517
      vertex 6.02892 7.5 12
    endloop
  endfacet
  facet normal 0 1 0
    outer loop
      vertex 6.02892 7.5 10.517
      vertex 6.25736 7.5 11
      vertex 6.49074 7.5 10.517
    endloop
  endfacet
  facet normal 0 1 -0
    outer loop
      vertex 7.97688 7.5 10.517
      vertex 7.51506 7.5 12
      vertex 7.97688 7.5 12
    endloop
  endfacet
  facet normal 0 1 0
    outer loop
      vertex 7.51506 7.5 12
      vertex 7.97688 7.5 10.517
      vertex 7.51506 7.5 10.517
    endloop
  endfacet
  facet normal 0 1 -0
    outer loop
      vertex 9.46303 7.5 10.517
      vertex 9.00121 7.5 11
      vertex 9.46303 7.5 11
    endloop
  endfacet
  facet normal 0 1 0
    outer loop
      vertex 9.00121 7.5 11
      vertex 9.46303 7.5 10.517
      vertex 9.00121 7.5 10.517
    endloop
  endfacet
  facet normal 0 -1 0
    outer loop
      vertex 6.02892 6.5 12
      vertex 6.37868 6.5 11.1213
      vertex 6.49074 6.5 12
    endloop
  endfacet
  facet normal 0 -1 0
    outer loop
      vertex 6.02892 6.5 12
      vertex 6.25736 6.5 11
      vertex 6.37868 6.5 11.1213
    endloop
  endfacet
  facet normal 0 -1 0
    outer loop
      vertex 6.02892 6.5 10.517
      vertex 6.25736 6.5 11
      vertex 6.02892 6.5 12
    endloop
  endfacet
  facet normal 0 -1 0
    outer loop
      vertex 6.49074 6.5 10.517
      vertex 6.25736 6.5 11
      vertex 6.02892 6.5 10.517
    endloop
  endfacet
  facet normal 0 -1 0
    outer loop
      vertex 6.25736 6.5 11
      vertex 6.49074 6.5 10.517
      vertex 6.49074 6.5 11
    endloop
  endfacet
  facet normal 0 -1 -0
    outer loop
      vertex 6.49074 6.5 12
      vertex 6.37868 6.5 11.1213
      vertex 6.49074 6.5 11.0093
    endloop
  endfacet
  facet normal 0 -1 0
    outer loop
      vertex 7.51506 6.5 10.517
      vertex 7.97688 6.5 12
      vertex 7.51506 6.5 12
    endloop
  endfacet
  facet normal 0 -1 -0
    outer loop
      vertex 7.97688 6.5 12
      vertex 7.51506 6.5 10.517
      vertex 7.97688 6.5 10.517
    endloop
  endfacet
  facet normal 0 -1 0
    outer loop
      vertex 9.00121 6.5 10.517
      vertex 9.46303 6.5 11
      vertex 9.00121 6.5 11
    endloop
  endfacet
  facet normal 0 -1 -0
    outer loop
      vertex 9.46303 6.5 11
      vertex 9.00121 6.5 10.517
      vertex 9.46303 6.5 10.517
    endloop
  endfacet
  facet normal -1 0 0
    outer loop
      vertex 6.02892 6.5 10.517
      vertex 6.02892 7.5 12
      vertex 6.02892 7.5 10.517
    endloop
  endfacet
  facet normal -1 -0 0
    outer loop
      vertex 6.02892 7.5 12
      vertex 6.02892 6.5 10.517
      vertex 6.02892 6.5 12
    endloop
  endfacet
  facet normal 0 0 -1
    outer loop
      vertex 6.02892 6.5 10.517
      vertex 6.49074 7.5 10.517
      vertex 6.49074 6.5 10.517
    endloop
  endfacet
  facet normal -0 0 -1
    outer loop
      vertex 6.49074 7.5 10.517
      vertex 6.02892 6.5 10.517
      vertex 6.02892 7.5 10.517
    endloop
  endfacet
  facet normal 1 -0 0
    outer loop
      vertex 6.49074 6.5 11
      vertex 6.49074 7.5 10.517
      vertex 6.49074 7.5 11
    endloop
  endfacet
  facet normal 1 0 0
    outer loop
      vertex 6.49074 7.5 10.517
      vertex 6.49074 6.5 11
      vertex 6.49074 6.5 10.517
    endloop
  endfacet
  facet normal 1 -0 0
    outer loop
      vertex 6.49074 6.5 12
      vertex 6.49074 7.5 11.0093
      vertex 6.49074 7.5 12
    endloop
  endfacet
  facet normal 1 0 0
    outer loop
      vertex 6.49074 7.5 11.0093
      vertex 6.49074 6.5 12
      vertex 6.49074 6.5 11.0093
    endloop
  endfacet
  facet normal -1 0 0
    outer loop
      vertex 7.51506 6.5 10.517
      vertex 7.51506 7.5 12
      vertex 7.51506 7.5 10.517
    endloop
  endfacet
  facet normal -1 -0 0
    outer loop
      vertex 7.51506 7.5 12
      vertex 7.51506 6.5 10.517
      vertex 7.51506 6.5 12
    endloop
  endfacet
  facet normal 0 0 -1
    outer loop
      vertex 7.51506 6.5 10.517
      vertex 7.97688 7.5 10.517
      vertex 7.97688 6.5 10.517
    endloop
  endfacet
  facet normal -0 0 -1
    outer loop
      vertex 7.97688 7.5 10.517
      vertex 7.51506 6.5 10.517
      vertex 7.51506 7.5 10.517
    endloop
  endfacet
  facet normal 1 -0 0
    outer loop
      vertex 7.97688 6.5 12
      vertex 7.97688 7.5 10.517
      vertex 7.97688 7.5 12
    endloop
  endfacet
  facet normal 1 0 0
    outer loop
      vertex 7.97688 7.5 10.517
      vertex 7.97688 6.5 12
      vertex 7.97688 6.5 10.517
    endloop
  endfacet
  facet normal -1 0 0
    outer loop
      vertex 9.00121 6.5 10.517
      vertex 9.00121 7.5 11
      vertex 9.00121 7.5 10.517
    endloop
  endfacet
  facet normal -1 -0 0
    outer loop
      vertex 9.00121 7.5 11
      vertex 9.00121 6.5 10.517
      vertex 9.00121 6.5 11
    endloop
  endfacet
  facet normal 0 0 -1
    outer loop
      vertex 9.00121 6.5 10.517
      vertex 9.46303 7.5 10.517
      vertex 9.46303 6.5 10.517
    endloop
  endfacet
  facet normal -0 0 -1
    outer loop
      vertex 9.46303 7.5 10.517
      vertex 9.00121 6.5 10.517
      vertex 9.00121 7.5 10.517
    endloop
  endfacet
  facet normal 1 -0 0
    outer loop
      vertex 9.46303 6.5 11
      vertex 9.46303 7.5 10.517
      vertex 9.46303 7.5 11
    endloop
  endfacet
  facet normal 1 0 0
    outer loop
      vertex 9.46303 7.5 10.517
      vertex 9.46303 6.5 11
      vertex 9.46303 6.5 10.517
    endloop
  endfacet
  facet normal 1 -0 0
    outer loop
      vertex 1 5.5 8.5
      vertex 1 23.5 5.5
      vertex 1 23.5 8.5
    endloop
  endfacet
  facet normal 1 0 0
    outer loop
      vertex 1 23.5 5.5
      vertex 1 5.5 8.5
      vertex 1 5.5 5.5
    endloop
  endfacet
  facet normal -1 0 0
    outer loop
      vertex -47 5.5 5.5
      vertex -47 23.5 8.5
      vertex -47 23.5 5.5
    endloop
  endfacet
  facet normal -1 -0 0
    outer loop
      vertex -47 23.5 8.5
      vertex -47 5.5 5.5
      vertex -47 5.5 8.5
    endloop
  endfacet
  facet normal 0 1 -0
    outer loop
      vertex -17.5093 7.5 10.517
      vertex -17.9711 7.5 14.6833
      vertex -17.5093 7.5 14.6833
    endloop
  endfacet
  facet normal 0 1 0
    outer loop
      vertex -17.9711 7.5 14.6833
      vertex -17.5093 7.5 10.517
      vertex -17.9711 7.5 10.517
    endloop
  endfacet
  facet normal 0 1 -0
    outer loop
      vertex -16.0231 7.5 10.517
      vertex -16.4849 7.5 14.6833
      vertex -16.0231 7.5 14.6833
    endloop
  endfacet
  facet normal 0 1 0
    outer loop
      vertex -16.4849 7.5 14.6833
      vertex -16.0231 7.5 10.517
      vertex -16.4849 7.5 10.517
    endloop
  endfacet
  facet normal 0 1 -0
    outer loop
      vertex -14.537 7.5 10.517
      vertex -14.9988 7.5 14.6833
      vertex -14.537 7.5 14.6833
    endloop
  endfacet
  facet normal 0 1 0
    outer loop
      vertex -14.9988 7.5 14.6833
      vertex -14.537 7.5 10.517
      vertex -14.9988 7.5 10.517
    endloop
  endfacet
  facet normal 0 -1 0
    outer loop
      vertex -17.9711 6.5 10.517
      vertex -17.5093 6.5 14.6833
      vertex -17.9711 6.5 14.6833
    endloop
  endfacet
  facet normal 0 -1 -0
    outer loop
      vertex -17.5093 6.5 14.6833
      vertex -17.9711 6.5 10.517
      vertex -17.5093 6.5 10.517
    endloop
  endfacet
  facet normal 0 -1 0
    outer loop
      vertex -16.4849 6.5 10.517
      vertex -16.0231 6.5 14.6833
      vertex -16.4849 6.5 14.6833
    endloop
  endfacet
  facet normal 0 -1 -0
    outer loop
      vertex -16.0231 6.5 14.6833
      vertex -16.4849 6.5 10.517
      vertex -16.0231 6.5 10.517
    endloop
  endfacet
  facet normal 0 -1 0
    outer loop
      vertex -14.9988 6.5 10.517
      vertex -14.537 6.5 14.6833
      vertex -14.9988 6.5 14.6833
    endloop
  endfacet
  facet normal 0 -1 -0
    outer loop
      vertex -14.537 6.5 14.6833
      vertex -14.9988 6.5 10.517
      vertex -14.537 6.5 10.517
    endloop
  endfacet
  facet normal -0 0 1
    outer loop
      vertex -17.9711 7.5 14.6833
      vertex -17.5093 6.5 14.6833
      vertex -17.5093 7.5 14.6833
    endloop
  endfacet
  facet normal 0 0 1
    outer loop
      vertex -17.5093 6.5 14.6833
      vertex -17.9711 7.5 14.6833
      vertex -17.9711 6.5 14.6833
    endloop
  endfacet
  facet normal -1 0 0
    outer loop
      vertex -17.9711 6.5 10.517
      vertex -17.9711 7.5 14.6833
      vertex -17.9711 7.5 10.517
    endloop
  endfacet
  facet normal -1 -0 0
    outer loop
      vertex -17.9711 7.5 14.6833
      vertex -17.9711 6.5 10.517
      vertex -17.9711 6.5 14.6833
    endloop
  endfacet
  facet normal 0 0 -1
    outer loop
      vertex -17.9711 6.5 10.517
      vertex -17.5093 7.5 10.517
      vertex -17.5093 6.5 10.517
    endloop
  endfacet
  facet normal -0 0 -1
    outer loop
      vertex -17.5093 7.5 10.517
      vertex -17.9711 6.5 10.517
      vertex -17.9711 7.5 10.517
    endloop
  endfacet
  facet normal 1 -0 0
    outer loop
      vertex -17.5093 6.5 14.6833
      vertex -17.5093 7.5 10.517
      vertex -17.5093 7.5 14.6833
    endloop
  endfacet
  facet normal 1 0 0
    outer loop
      vertex -17.5093 7.5 10.517
      vertex -17.5093 6.5 14.6833
      vertex -17.5093 6.5 10.517
    endloop
  endfacet
  facet normal -0 0 1
    outer loop
      vertex -16.4849 7.5 14.6833
      vertex -16.0231 6.5 14.6833
      vertex -16.0231 7.5 14.6833
    endloop
  endfacet
  facet normal 0 0 1
    outer loop
      vertex -16.0231 6.5 14.6833
      vertex -16.4849 7.5 14.6833
      vertex -16.4849 6.5 14.6833
    endloop
  endfacet
  facet normal -1 0 0
    outer loop
      vertex -16.4849 6.5 10.517
      vertex -16.4849 7.5 14.6833
      vertex -16.4849 7.5 10.517
    endloop
  endfacet
  facet normal -1 -0 0
    outer loop
      vertex -16.4849 7.5 14.6833
      vertex -16.4849 6.5 10.517
      vertex -16.4849 6.5 14.6833
    endloop
  endfacet
  facet normal 0 0 -1
    outer loop
      vertex -16.4849 6.5 10.517
      vertex -16.0231 7.5 10.517
      vertex -16.0231 6.5 10.517
    endloop
  endfacet
  facet normal -0 0 -1
    outer loop
      vertex -16.0231 7.5 10.517
      vertex -16.4849 6.5 10.517
      vertex -16.4849 7.5 10.517
    endloop
  endfacet
  facet normal 1 -0 0
    outer loop
      vertex -16.0231 6.5 14.6833
      vertex -16.0231 7.5 10.517
      vertex -16.0231 7.5 14.6833
    endloop
  endfacet
  facet normal 1 0 0
    outer loop
      vertex -16.0231 7.5 10.517
      vertex -16.0231 6.5 14.6833
      vertex -16.0231 6.5 10.517
    endloop
  endfacet
  facet normal -0 0 1
    outer loop
      vertex -14.9988 7.5 14.6833
      vertex -14.537 6.5 14.6833
      vertex -14.537 7.5 14.6833
    endloop
  endfacet
  facet normal 0 0 1
    outer loop
      vertex -14.537 6.5 14.6833
      vertex -14.9988 7.5 14.6833
      vertex -14.9988 6.5 14.6833
    endloop
  endfacet
  facet normal -1 0 0
    outer loop
      vertex -14.9988 6.5 10.517
      vertex -14.9988 7.5 14.6833
      vertex -14.9988 7.5 10.517
    endloop
  endfacet
  facet normal -1 -0 0
    outer loop
      vertex -14.9988 7.5 14.6833
      vertex -14.9988 6.5 10.517
      vertex -14.9988 6.5 14.6833
    endloop
  endfacet
  facet normal 0 0 -1
    outer loop
      vertex -14.9988 6.5 10.517
      vertex -14.537 7.5 10.517
      vertex -14.537 6.5 10.517
    endloop
  endfacet
  facet normal -0 0 -1
    outer loop
      vertex -14.537 7.5 10.517
      vertex -14.9988 6.5 10.517
      vertex -14.9988 7.5 10.517
    endloop
  endfacet
  facet normal 1 -0 0
    outer loop
      vertex -14.537 6.5 14.6833
      vertex -14.537 7.5 10.517
      vertex -14.537 7.5 14.6833
    endloop
  endfacet
  facet normal 1 0 0
    outer loop
      vertex -14.537 7.5 10.517
      vertex -14.537 6.5 14.6833
      vertex -14.537 6.5 10.517
    endloop
  endfacet
endsolid OpenSCAD_Model
