solid OpenSCAD_Model
  facet normal 1 0 0
    outer loop
      vertex 45 40 4
      vertex 45 43 5.5
      vertex 45 40 5.5
    endloop
  endfacet
  facet normal 1 0 0
    outer loop
      vertex 45 43 5.5
      vertex 45 40 4
      vertex 45 43 0
    endloop
  endfacet
  facet normal 1 0 0
    outer loop
      vertex 45 43 0
      vertex 45 40 4
      vertex 45 40 0
    endloop
  endfacet
  facet normal 0 0 -1
    outer loop
      vertex 60 0 0
      vertex 45 40 0
      vertex 60 40 0
    endloop
  endfacet
  facet normal 0 0 -1
    outer loop
      vertex 45 40 0
      vertex 15 40 0
      vertex 45 43 0
    endloop
  endfacet
  facet normal 0 0 -1
    outer loop
      vertex 60 0 0
      vertex 15 40 0
      vertex 45 40 0
    endloop
  endfacet
  facet normal 0 0 -1
    outer loop
      vertex 0 0 0
      vertex 15 40 0
      vertex 60 0 0
    endloop
  endfacet
  facet normal -0 0 -1
    outer loop
      vertex 15 40 0
      vertex 0 0 0
      vertex 0 40 0
    endloop
  endfacet
  facet normal -0 0 -1
    outer loop
      vertex 45 43 0
      vertex 15 40 0
      vertex 15 43 0
    endloop
  endfacet
  facet normal -1 0 0
    outer loop
      vertex 15 40 4
      vertex 15 43 0
      vertex 15 40 0
    endloop
  endfacet
  facet normal -1 0 0
    outer loop
      vertex 15 43 0
      vertex 15 40 4
      vertex 15 43 5.5
    endloop
  endfacet
  facet normal -1 -0 0
    outer loop
      vertex 15 43 5.5
      vertex 15 40 4
      vertex 15 40 5.5
    endloop
  endfacet
  facet normal 0 1 -0
    outer loop
      vertex 45 43 0
      vertex 15 43 5.5
      vertex 45 43 5.5
    endloop
  endfacet
  facet normal 0 1 0
    outer loop
      vertex 15 43 5.5
      vertex 45 43 0
      vertex 15 43 0
    endloop
  endfacet
  facet normal 0 1 -0
    outer loop
      vertex 15 40 0
      vertex 0 40 4
      vertex 15 40 4
    endloop
  endfacet
  facet normal 0 1 0
    outer loop
      vertex 0 40 4
      vertex 15 40 0
      vertex 0 40 0
    endloop
  endfacet
  facet normal 0 1 -0
    outer loop
      vertex 60 40 0
      vertex 45 40 4
      vertex 60 40 4
    endloop
  endfacet
  facet normal 0 1 0
    outer loop
      vertex 45 40 4
      vertex 60 40 0
      vertex 45 40 0
    endloop
  endfacet
  facet normal 0 -1 0
    outer loop
      vertex 15 40 4
      vertex 45 40 5.5
      vertex 15 40 5.5
    endloop
  endfacet
  facet normal 0 -1 -0
    outer loop
      vertex 45 40 5.5
      vertex 15 40 4
      vertex 45 40 4
    endloop
  endfacet
  facet normal -0 0 1
    outer loop
      vertex 15 43 5.5
      vertex 45 40 5.5
      vertex 45 43 5.5
    endloop
  endfacet
  facet normal 0 0 1
    outer loop
      vertex 45 40 5.5
      vertex 15 43 5.5
      vertex 15 40 5.5
    endloop
  endfacet
  facet normal 1 -0 0
    outer loop
      vertex 60 0 4
      vertex 60 40 0
      vertex 60 40 4
    endloop
  endfacet
  facet normal 1 0 0
    outer loop
      vertex 60 40 0
      vertex 60 0 4
      vertex 60 0 0
    endloop
  endfacet
  facet normal 0 0 1
    outer loop
      vertex 33.5 20 4
      vertex 34 20 4
      vertex 33.9807 20.3921 4
    endloop
  endfacet
  facet normal 0 0 1
    outer loop
      vertex 33.4831 20.3431 4
      vertex 33.9807 20.3921 4
      vertex 33.9231 20.7804 4
    endloop
  endfacet
  facet normal 0 0 1
    outer loop
      vertex 34 20 4
      vertex 33.5 20 4
      vertex 33.9807 19.6079 4
    endloop
  endfacet
  facet normal 0 0 1
    outer loop
      vertex 33.4327 20.6828 4
      vertex 33.9231 20.7804 4
      vertex 33.8278 21.1611 4
    endloop
  endfacet
  facet normal -0 0 1
    outer loop
      vertex 33.4831 19.6569 4
      vertex 33.9807 19.6079 4
      vertex 33.5 20 4
    endloop
  endfacet
  facet normal 0 0 1
    outer loop
      vertex 33.3493 21.016 4
      vertex 33.8278 21.1611 4
      vertex 33.6955 21.5307 4
    endloop
  endfacet
  facet normal 0 0 1
    outer loop
      vertex 33.9807 19.6079 4
      vertex 33.4831 19.6569 4
      vertex 33.9231 19.2196 4
    endloop
  endfacet
  facet normal 0 0 1
    outer loop
      vertex 33.2336 21.3394 4
      vertex 33.6955 21.5307 4
      vertex 33.5277 21.8856 4
    endloop
  endfacet
  facet normal -0 0 1
    outer loop
      vertex 33.4327 19.3172 4
      vertex 33.9231 19.2196 4
      vertex 33.4831 19.6569 4
    endloop
  endfacet
  facet normal 0 0 1
    outer loop
      vertex 33.9231 19.2196 4
      vertex 33.4327 19.3172 4
      vertex 33.8278 18.8389 4
    endloop
  endfacet
  facet normal 0 0 1
    outer loop
      vertex 33.9807 20.3921 4
      vertex 33.4831 20.3431 4
      vertex 33.5 20 4
    endloop
  endfacet
  facet normal 0 0 1
    outer loop
      vertex 33.9231 20.7804 4
      vertex 33.4327 20.6828 4
      vertex 33.4831 20.3431 4
    endloop
  endfacet
  facet normal 0 0 1
    outer loop
      vertex 33.8278 21.1611 4
      vertex 33.3493 21.016 4
      vertex 33.4327 20.6828 4
    endloop
  endfacet
  facet normal 0 0 1
    outer loop
      vertex 33.0867 21.6499 4
      vertex 33.5277 21.8856 4
      vertex 33.3259 22.2223 4
    endloop
  endfacet
  facet normal 0 0 1
    outer loop
      vertex 33.6955 21.5307 4
      vertex 33.2336 21.3394 4
      vertex 33.3493 21.016 4
    endloop
  endfacet
  facet normal 0 0 1
    outer loop
      vertex 32.9101 21.9445 4
      vertex 33.3259 22.2223 4
      vertex 33.092 22.5376 4
    endloop
  endfacet
  facet normal 0 0 1
    outer loop
      vertex 33.5277 21.8856 4
      vertex 33.0867 21.6499 4
      vertex 33.2336 21.3394 4
    endloop
  endfacet
  facet normal 0 0 1
    outer loop
      vertex 33.3259 22.2223 4
      vertex 32.9101 21.9445 4
      vertex 33.0867 21.6499 4
    endloop
  endfacet
  facet normal 0 0 1
    outer loop
      vertex 32.7055 22.2204 4
      vertex 33.092 22.5376 4
      vertex 32.8284 22.8284 4
    endloop
  endfacet
  facet normal 0 0 1
    outer loop
      vertex 33.092 22.5376 4
      vertex 32.7055 22.2204 4
      vertex 32.9101 21.9445 4
    endloop
  endfacet
  facet normal 0 0 1
    outer loop
      vertex 32.4749 22.4749 4
      vertex 32.8284 22.8284 4
      vertex 32.5376 23.092 4
    endloop
  endfacet
  facet normal 0 0 1
    outer loop
      vertex 32.8284 22.8284 4
      vertex 32.4749 22.4749 4
      vertex 32.7055 22.2204 4
    endloop
  endfacet
  facet normal 0 0 1
    outer loop
      vertex 32.2204 22.7055 4
      vertex 32.5376 23.092 4
      vertex 32.2223 23.3259 4
    endloop
  endfacet
  facet normal 0 0 1
    outer loop
      vertex 32.5376 23.092 4
      vertex 32.2204 22.7055 4
      vertex 32.4749 22.4749 4
    endloop
  endfacet
  facet normal 0 0 1
    outer loop
      vertex 32.2223 23.3259 4
      vertex 31.9445 22.9101 4
      vertex 32.2204 22.7055 4
    endloop
  endfacet
  facet normal 0 0 1
    outer loop
      vertex 31.8856 23.5277 4
      vertex 31.9445 22.9101 4
      vertex 32.2223 23.3259 4
    endloop
  endfacet
  facet normal 0 0 1
    outer loop
      vertex 31.8856 23.5277 4
      vertex 31.6499 23.0867 4
      vertex 31.9445 22.9101 4
    endloop
  endfacet
  facet normal 0 0 1
    outer loop
      vertex 31.5307 23.6955 4
      vertex 31.6499 23.0867 4
      vertex 31.8856 23.5277 4
    endloop
  endfacet
  facet normal 0 0 1
    outer loop
      vertex 31.5307 23.6955 4
      vertex 31.3394 23.2336 4
      vertex 31.6499 23.0867 4
    endloop
  endfacet
  facet normal 0 0 1
    outer loop
      vertex 31.1611 23.8278 4
      vertex 31.3394 23.2336 4
      vertex 31.5307 23.6955 4
    endloop
  endfacet
  facet normal 0 0 1
    outer loop
      vertex 31.1611 23.8278 4
      vertex 31.016 23.3493 4
      vertex 31.3394 23.2336 4
    endloop
  endfacet
  facet normal 0 0 1
    outer loop
      vertex 30.7804 23.9231 4
      vertex 31.016 23.3493 4
      vertex 31.1611 23.8278 4
    endloop
  endfacet
  facet normal 0 0 1
    outer loop
      vertex 30.7804 23.9231 4
      vertex 30.6828 23.4327 4
      vertex 31.016 23.3493 4
    endloop
  endfacet
  facet normal 0 0 1
    outer loop
      vertex 30.3921 23.9807 4
      vertex 30.6828 23.4327 4
      vertex 30.7804 23.9231 4
    endloop
  endfacet
  facet normal 0 0 1
    outer loop
      vertex 30.3921 23.9807 4
      vertex 30.3431 23.4831 4
      vertex 30.6828 23.4327 4
    endloop
  endfacet
  facet normal 0 0 1
    outer loop
      vertex 30 24 4
      vertex 30.3431 23.4831 4
      vertex 30.3921 23.9807 4
    endloop
  endfacet
  facet normal 0 0 1
    outer loop
      vertex 30 24 4
      vertex 30 23.5 4
      vertex 30.3431 23.4831 4
    endloop
  endfacet
  facet normal 0 0 1
    outer loop
      vertex 30 24 4
      vertex 29.6569 23.4831 4
      vertex 30 23.5 4
    endloop
  endfacet
  facet normal -0 0 1
    outer loop
      vertex 29.6079 23.9807 4
      vertex 29.6569 23.4831 4
      vertex 30 24 4
    endloop
  endfacet
  facet normal 0 0 1
    outer loop
      vertex 29.6079 23.9807 4
      vertex 29.3172 23.4327 4
      vertex 29.6569 23.4831 4
    endloop
  endfacet
  facet normal -0 0 1
    outer loop
      vertex 29.2196 23.9231 4
      vertex 29.3172 23.4327 4
      vertex 29.6079 23.9807 4
    endloop
  endfacet
  facet normal 0 0 1
    outer loop
      vertex 29.2196 23.9231 4
      vertex 28.984 23.3493 4
      vertex 29.3172 23.4327 4
    endloop
  endfacet
  facet normal -0 0 1
    outer loop
      vertex 28.8389 23.8278 4
      vertex 28.984 23.3493 4
      vertex 29.2196 23.9231 4
    endloop
  endfacet
  facet normal 0 0 1
    outer loop
      vertex 28.8389 23.8278 4
      vertex 28.6606 23.2336 4
      vertex 28.984 23.3493 4
    endloop
  endfacet
  facet normal -0 0 1
    outer loop
      vertex 28.4693 23.6955 4
      vertex 28.6606 23.2336 4
      vertex 28.8389 23.8278 4
    endloop
  endfacet
  facet normal 0 0 1
    outer loop
      vertex 28.4693 23.6955 4
      vertex 28.3501 23.0867 4
      vertex 28.6606 23.2336 4
    endloop
  endfacet
  facet normal -0 0 1
    outer loop
      vertex 28.1144 23.5277 4
      vertex 28.3501 23.0867 4
      vertex 28.4693 23.6955 4
    endloop
  endfacet
  facet normal 0 0 1
    outer loop
      vertex 28.1144 23.5277 4
      vertex 28.0555 22.9101 4
      vertex 28.3501 23.0867 4
    endloop
  endfacet
  facet normal -0 0 1
    outer loop
      vertex 27.7777 23.3259 4
      vertex 28.0555 22.9101 4
      vertex 28.1144 23.5277 4
    endloop
  endfacet
  facet normal 0 0 1
    outer loop
      vertex 28.0555 22.9101 4
      vertex 27.7777 23.3259 4
      vertex 27.7796 22.7055 4
    endloop
  endfacet
  facet normal -0 0 1
    outer loop
      vertex 27.4624 23.092 4
      vertex 27.7796 22.7055 4
      vertex 27.7777 23.3259 4
    endloop
  endfacet
  facet normal 0 0 1
    outer loop
      vertex 27.7796 22.7055 4
      vertex 27.4624 23.092 4
      vertex 27.5251 22.4749 4
    endloop
  endfacet
  facet normal -0 0 1
    outer loop
      vertex 27.1716 22.8284 4
      vertex 27.5251 22.4749 4
      vertex 27.4624 23.092 4
    endloop
  endfacet
  facet normal 0 0 1
    outer loop
      vertex 27.5251 22.4749 4
      vertex 27.1716 22.8284 4
      vertex 27.2945 22.2204 4
    endloop
  endfacet
  facet normal -0 0 1
    outer loop
      vertex 26.908 22.5376 4
      vertex 27.2945 22.2204 4
      vertex 27.1716 22.8284 4
    endloop
  endfacet
  facet normal 0 0 1
    outer loop
      vertex 27.2945 22.2204 4
      vertex 26.908 22.5376 4
      vertex 27.0899 21.9445 4
    endloop
  endfacet
  facet normal -0 0 1
    outer loop
      vertex 26.6741 22.2223 4
      vertex 27.0899 21.9445 4
      vertex 26.908 22.5376 4
    endloop
  endfacet
  facet normal 0 0 1
    outer loop
      vertex 27.0899 21.9445 4
      vertex 26.6741 22.2223 4
      vertex 26.9133 21.6499 4
    endloop
  endfacet
  facet normal -0 0 1
    outer loop
      vertex 26.4723 21.8856 4
      vertex 26.9133 21.6499 4
      vertex 26.6741 22.2223 4
    endloop
  endfacet
  facet normal 0 0 1
    outer loop
      vertex 26.9133 21.6499 4
      vertex 26.4723 21.8856 4
      vertex 26.7664 21.3394 4
    endloop
  endfacet
  facet normal -0 0 1
    outer loop
      vertex 26.3045 21.5307 4
      vertex 26.7664 21.3394 4
      vertex 26.4723 21.8856 4
    endloop
  endfacet
  facet normal 0 0 1
    outer loop
      vertex 26.7664 21.3394 4
      vertex 26.3045 21.5307 4
      vertex 26.6507 21.016 4
    endloop
  endfacet
  facet normal 0 0 1
    outer loop
      vertex 26.6507 21.016 4
      vertex 26.1722 21.1611 4
      vertex 26.5673 20.6828 4
    endloop
  endfacet
  facet normal -0 0 1
    outer loop
      vertex 26.1722 21.1611 4
      vertex 26.6507 21.016 4
      vertex 26.3045 21.5307 4
    endloop
  endfacet
  facet normal -0 0 1
    outer loop
      vertex 33.3493 18.984 4
      vertex 33.8278 18.8389 4
      vertex 33.4327 19.3172 4
    endloop
  endfacet
  facet normal 0 0 1
    outer loop
      vertex 33.8278 18.8389 4
      vertex 33.3493 18.984 4
      vertex 33.6955 18.4693 4
    endloop
  endfacet
  facet normal -0 0 1
    outer loop
      vertex 33.2336 18.6606 4
      vertex 33.6955 18.4693 4
      vertex 33.3493 18.984 4
    endloop
  endfacet
  facet normal 0 0 1
    outer loop
      vertex 33.6955 18.4693 4
      vertex 33.2336 18.6606 4
      vertex 33.5277 18.1144 4
    endloop
  endfacet
  facet normal -0 0 1
    outer loop
      vertex 33.0867 18.3501 4
      vertex 33.5277 18.1144 4
      vertex 33.2336 18.6606 4
    endloop
  endfacet
  facet normal 0 0 1
    outer loop
      vertex 33.5277 18.1144 4
      vertex 33.0867 18.3501 4
      vertex 33.3259 17.7777 4
    endloop
  endfacet
  facet normal -0 0 1
    outer loop
      vertex 32.9101 18.0555 4
      vertex 33.3259 17.7777 4
      vertex 33.0867 18.3501 4
    endloop
  endfacet
  facet normal 0 0 1
    outer loop
      vertex 33.3259 17.7777 4
      vertex 32.9101 18.0555 4
      vertex 33.092 17.4624 4
    endloop
  endfacet
  facet normal -0 0 1
    outer loop
      vertex 32.7055 17.7796 4
      vertex 33.092 17.4624 4
      vertex 32.9101 18.0555 4
    endloop
  endfacet
  facet normal 0 0 1
    outer loop
      vertex 33.092 17.4624 4
      vertex 32.7055 17.7796 4
      vertex 32.8284 17.1716 4
    endloop
  endfacet
  facet normal -0 0 1
    outer loop
      vertex 32.4749 17.5251 4
      vertex 32.8284 17.1716 4
      vertex 32.7055 17.7796 4
    endloop
  endfacet
  facet normal 0 0 1
    outer loop
      vertex 32.8284 17.1716 4
      vertex 32.4749 17.5251 4
      vertex 32.5376 16.908 4
    endloop
  endfacet
  facet normal -0 0 1
    outer loop
      vertex 32.2204 17.2945 4
      vertex 32.5376 16.908 4
      vertex 32.4749 17.5251 4
    endloop
  endfacet
  facet normal 0 0 1
    outer loop
      vertex 32.5376 16.908 4
      vertex 32.2204 17.2945 4
      vertex 32.2223 16.6741 4
    endloop
  endfacet
  facet normal -0 0 1
    outer loop
      vertex 31.9445 17.0899 4
      vertex 32.2223 16.6741 4
      vertex 32.2204 17.2945 4
    endloop
  endfacet
  facet normal 0 0 1
    outer loop
      vertex 31.9445 17.0899 4
      vertex 31.8856 16.4723 4
      vertex 32.2223 16.6741 4
    endloop
  endfacet
  facet normal -0 0 1
    outer loop
      vertex 31.6499 16.9133 4
      vertex 31.8856 16.4723 4
      vertex 31.9445 17.0899 4
    endloop
  endfacet
  facet normal 0 0 1
    outer loop
      vertex 31.6499 16.9133 4
      vertex 31.5307 16.3045 4
      vertex 31.8856 16.4723 4
    endloop
  endfacet
  facet normal -0 0 1
    outer loop
      vertex 31.3394 16.7664 4
      vertex 31.5307 16.3045 4
      vertex 31.6499 16.9133 4
    endloop
  endfacet
  facet normal 0 0 1
    outer loop
      vertex 31.3394 16.7664 4
      vertex 31.1611 16.1722 4
      vertex 31.5307 16.3045 4
    endloop
  endfacet
  facet normal -0 0 1
    outer loop
      vertex 31.016 16.6507 4
      vertex 31.1611 16.1722 4
      vertex 31.3394 16.7664 4
    endloop
  endfacet
  facet normal 0 0 1
    outer loop
      vertex 31.016 16.6507 4
      vertex 30.7804 16.0769 4
      vertex 31.1611 16.1722 4
    endloop
  endfacet
  facet normal -0 0 1
    outer loop
      vertex 30.6828 16.5673 4
      vertex 30.7804 16.0769 4
      vertex 31.016 16.6507 4
    endloop
  endfacet
  facet normal 0 0 1
    outer loop
      vertex 30.6828 16.5673 4
      vertex 30.3921 16.0193 4
      vertex 30.7804 16.0769 4
    endloop
  endfacet
  facet normal -0 0 1
    outer loop
      vertex 30.3431 16.5169 4
      vertex 30.3921 16.0193 4
      vertex 30.6828 16.5673 4
    endloop
  endfacet
  facet normal -0 0 1
    outer loop
      vertex 30 16.5 4
      vertex 30.3921 16.0193 4
      vertex 30.3431 16.5169 4
    endloop
  endfacet
  facet normal 0 0 1
    outer loop
      vertex 30 16.5 4
      vertex 30 16 4
      vertex 30.3921 16.0193 4
    endloop
  endfacet
  facet normal 0 0 1
    outer loop
      vertex 29.6569 16.5169 4
      vertex 30 16 4
      vertex 30 16.5 4
    endloop
  endfacet
  facet normal 0 0 1
    outer loop
      vertex 29.6569 16.5169 4
      vertex 29.6079 16.0193 4
      vertex 30 16 4
    endloop
  endfacet
  facet normal 0 0 1
    outer loop
      vertex 29.3172 16.5673 4
      vertex 29.6079 16.0193 4
      vertex 29.6569 16.5169 4
    endloop
  endfacet
  facet normal 0 0 1
    outer loop
      vertex 29.3172 16.5673 4
      vertex 29.2196 16.0769 4
      vertex 29.6079 16.0193 4
    endloop
  endfacet
  facet normal 0 0 1
    outer loop
      vertex 28.984 16.6507 4
      vertex 29.2196 16.0769 4
      vertex 29.3172 16.5673 4
    endloop
  endfacet
  facet normal 0 0 1
    outer loop
      vertex 28.984 16.6507 4
      vertex 28.8389 16.1722 4
      vertex 29.2196 16.0769 4
    endloop
  endfacet
  facet normal 0 0 1
    outer loop
      vertex 28.6606 16.7664 4
      vertex 28.8389 16.1722 4
      vertex 28.984 16.6507 4
    endloop
  endfacet
  facet normal 0 0 1
    outer loop
      vertex 28.6606 16.7664 4
      vertex 28.4693 16.3045 4
      vertex 28.8389 16.1722 4
    endloop
  endfacet
  facet normal 0 0 1
    outer loop
      vertex 28.3501 16.9133 4
      vertex 28.4693 16.3045 4
      vertex 28.6606 16.7664 4
    endloop
  endfacet
  facet normal 0 0 1
    outer loop
      vertex 28.3501 16.9133 4
      vertex 28.1144 16.4723 4
      vertex 28.4693 16.3045 4
    endloop
  endfacet
  facet normal 0 0 1
    outer loop
      vertex 28.0555 17.0899 4
      vertex 28.1144 16.4723 4
      vertex 28.3501 16.9133 4
    endloop
  endfacet
  facet normal 0 0 1
    outer loop
      vertex 27.7777 16.6741 4
      vertex 28.0555 17.0899 4
      vertex 27.7796 17.2945 4
    endloop
  endfacet
  facet normal 0 0 1
    outer loop
      vertex 28.0555 17.0899 4
      vertex 27.7777 16.6741 4
      vertex 28.1144 16.4723 4
    endloop
  endfacet
  facet normal 0 0 1
    outer loop
      vertex 27.4624 16.908 4
      vertex 27.7796 17.2945 4
      vertex 27.5251 17.5251 4
    endloop
  endfacet
  facet normal 0 0 1
    outer loop
      vertex 27.7796 17.2945 4
      vertex 27.4624 16.908 4
      vertex 27.7777 16.6741 4
    endloop
  endfacet
  facet normal 0 0 1
    outer loop
      vertex 27.1716 17.1716 4
      vertex 27.5251 17.5251 4
      vertex 27.2945 17.7796 4
    endloop
  endfacet
  facet normal 0 0 1
    outer loop
      vertex 27.5251 17.5251 4
      vertex 27.1716 17.1716 4
      vertex 27.4624 16.908 4
    endloop
  endfacet
  facet normal 0 0 1
    outer loop
      vertex 26.908 17.4624 4
      vertex 27.2945 17.7796 4
      vertex 27.0899 18.0555 4
    endloop
  endfacet
  facet normal 0 0 1
    outer loop
      vertex 26.6741 17.7777 4
      vertex 27.0899 18.0555 4
      vertex 26.9133 18.3501 4
    endloop
  endfacet
  facet normal 0 0 1
    outer loop
      vertex 27.2945 17.7796 4
      vertex 26.908 17.4624 4
      vertex 27.1716 17.1716 4
    endloop
  endfacet
  facet normal 0 0 1
    outer loop
      vertex 26.4723 18.1144 4
      vertex 26.9133 18.3501 4
      vertex 26.7664 18.6606 4
    endloop
  endfacet
  facet normal 0 0 1
    outer loop
      vertex 27.0899 18.0555 4
      vertex 26.6741 17.7777 4
      vertex 26.908 17.4624 4
    endloop
  endfacet
  facet normal 0 0 1
    outer loop
      vertex 26.3045 18.4693 4
      vertex 26.7664 18.6606 4
      vertex 26.6507 18.984 4
    endloop
  endfacet
  facet normal 0 0 1
    outer loop
      vertex 26.1722 18.8389 4
      vertex 26.6507 18.984 4
      vertex 26.5673 19.3172 4
    endloop
  endfacet
  facet normal 0 0 1
    outer loop
      vertex 26.0769 19.2196 4
      vertex 26.5673 19.3172 4
      vertex 26.5169 19.6569 4
    endloop
  endfacet
  facet normal 0 0 1
    outer loop
      vertex 26.9133 18.3501 4
      vertex 26.4723 18.1144 4
      vertex 26.6741 17.7777 4
    endloop
  endfacet
  facet normal 0 0 1
    outer loop
      vertex 26.0193 19.6079 4
      vertex 26.5169 19.6569 4
      vertex 26.5 20 4
    endloop
  endfacet
  facet normal -0 0 1
    outer loop
      vertex 26.0769 20.7804 4
      vertex 26.5673 20.6828 4
      vertex 26.1722 21.1611 4
    endloop
  endfacet
  facet normal 0 0 1
    outer loop
      vertex 26.5673 20.6828 4
      vertex 26.0769 20.7804 4
      vertex 26.5169 20.3431 4
    endloop
  endfacet
  facet normal 0 0 1
    outer loop
      vertex 26.7664 18.6606 4
      vertex 26.3045 18.4693 4
      vertex 26.4723 18.1144 4
    endloop
  endfacet
  facet normal -0 0 1
    outer loop
      vertex 26.0193 20.3921 4
      vertex 26.5169 20.3431 4
      vertex 26.0769 20.7804 4
    endloop
  endfacet
  facet normal 0 0 1
    outer loop
      vertex 26.6507 18.984 4
      vertex 26.1722 18.8389 4
      vertex 26.3045 18.4693 4
    endloop
  endfacet
  facet normal 0 0 1
    outer loop
      vertex 26.5169 20.3431 4
      vertex 26.0193 20.3921 4
      vertex 26.5 20 4
    endloop
  endfacet
  facet normal 0 0 1
    outer loop
      vertex 26.5673 19.3172 4
      vertex 26.0769 19.2196 4
      vertex 26.1722 18.8389 4
    endloop
  endfacet
  facet normal 0 0 1
    outer loop
      vertex 26 20 4
      vertex 26.5 20 4
      vertex 26.0193 20.3921 4
    endloop
  endfacet
  facet normal 0 0 1
    outer loop
      vertex 26.5169 19.6569 4
      vertex 26.0193 19.6079 4
      vertex 26.0769 19.2196 4
    endloop
  endfacet
  facet normal 0 0 1
    outer loop
      vertex 26.5 20 4
      vertex 26 20 4
      vertex 26.0193 19.6079 4
    endloop
  endfacet
  facet normal 0 0 1
    outer loop
      vertex 60 40 4
      vertex 52.5 33 4
      vertex 60 0 4
    endloop
  endfacet
  facet normal -0 0 1
    outer loop
      vertex 45 40 4
      vertex 52.5 33 4
      vertex 60 40 4
    endloop
  endfacet
  facet normal -0 0 1
    outer loop
      vertex 15 40 4
      vertex 52.5 33 4
      vertex 45 40 4
    endloop
  endfacet
  facet normal 0 0 1
    outer loop
      vertex 15 40 4
      vertex 7.5 33 4
      vertex 52.5 33 4
    endloop
  endfacet
  facet normal 0 0 1
    outer loop
      vertex 7.5 33 4
      vertex 0 40 4
      vertex 7.5 7 4
    endloop
  endfacet
  facet normal -0 0 1
    outer loop
      vertex 0 40 4
      vertex 7.5 33 4
      vertex 15 40 4
    endloop
  endfacet
  facet normal -0 0 1
    outer loop
      vertex 52.5 7 4
      vertex 60 0 4
      vertex 52.5 33 4
    endloop
  endfacet
  facet normal -0 0 1
    outer loop
      vertex 7.5 7 4
      vertex 60 0 4
      vertex 52.5 7 4
    endloop
  endfacet
  facet normal 0 0 1
    outer loop
      vertex 7.5 7 4
      vertex 0 0 4
      vertex 60 0 4
    endloop
  endfacet
  facet normal 0 0 1
    outer loop
      vertex 0 0 4
      vertex 7.5 7 4
      vertex 0 40 4
    endloop
  endfacet
  facet normal -1 0 0
    outer loop
      vertex 0 0 0
      vertex 0 40 4
      vertex 0 40 0
    endloop
  endfacet
  facet normal -1 -0 0
    outer loop
      vertex 0 40 4
      vertex 0 0 0
      vertex 0 0 4
    endloop
  endfacet
  facet normal 0 -1 0
    outer loop
      vertex 0 0 0
      vertex 60 0 4
      vertex 0 0 4
    endloop
  endfacet
  facet normal 0 -1 -0
    outer loop
      vertex 60 0 4
      vertex 0 0 0
      vertex 60 0 0
    endloop
  endfacet
  facet normal -0.336853 -0.941557 0
    outer loop
      vertex 28.6606 16.7664 4
      vertex 28.984 16.6507 40
      vertex 28.6606 16.7664 40
    endloop
  endfacet
  facet normal -0.336853 -0.941557 -0
    outer loop
      vertex 28.984 16.6507 40
      vertex 28.6606 16.7664 4
      vertex 28.984 16.6507 4
    endloop
  endfacet
  facet normal 0.989172 0.14676 0
    outer loop
      vertex 33.4831 20.3431 40
      vertex 33.4327 20.6828 4
      vertex 33.4327 20.6828 40
    endloop
  endfacet
  facet normal 0.989172 0.14676 0
    outer loop
      vertex 33.4327 20.6828 4
      vertex 33.4831 20.3431 40
      vertex 33.4831 20.3431 4
    endloop
  endfacet
  facet normal 0.998789 0.0491971 0
    outer loop
      vertex 33.5 20 40
      vertex 33.4831 20.3431 4
      vertex 33.4831 20.3431 40
    endloop
  endfacet
  facet normal 0.998789 0.0491971 0
    outer loop
      vertex 33.4831 20.3431 4
      vertex 33.5 20 40
      vertex 33.5 20 4
    endloop
  endfacet
  facet normal 0.970074 0.24281 0
    outer loop
      vertex 33.4327 20.6828 40
      vertex 33.3493 21.016 4
      vertex 33.3493 21.016 40
    endloop
  endfacet
  facet normal 0.970074 0.24281 0
    outer loop
      vertex 33.3493 21.016 4
      vertex 33.4327 20.6828 40
      vertex 33.4327 20.6828 4
    endloop
  endfacet
  facet normal -0.989172 0.14676 0
    outer loop
      vertex 26.5169 20.3431 4
      vertex 26.5673 20.6828 40
      vertex 26.5673 20.6828 4
    endloop
  endfacet
  facet normal -0.989172 0.14676 0
    outer loop
      vertex 26.5673 20.6828 40
      vertex 26.5169 20.3431 4
      vertex 26.5169 20.3431 40
    endloop
  endfacet
  facet normal -0.24281 -0.970074 0
    outer loop
      vertex 28.984 16.6507 4
      vertex 29.3172 16.5673 40
      vertex 28.984 16.6507 40
    endloop
  endfacet
  facet normal -0.24281 -0.970074 -0
    outer loop
      vertex 29.3172 16.5673 40
      vertex 28.984 16.6507 4
      vertex 29.3172 16.5673 4
    endloop
  endfacet
  facet normal 0.336853 0.941557 -0
    outer loop
      vertex 31.3394 23.2336 4
      vertex 31.016 23.3493 40
      vertex 31.3394 23.2336 40
    endloop
  endfacet
  facet normal 0.336853 0.941557 0
    outer loop
      vertex 31.016 23.3493 40
      vertex 31.3394 23.2336 4
      vertex 31.016 23.3493 4
    endloop
  endfacet
  facet normal -0.514153 0.857698 0
    outer loop
      vertex 28.3501 23.0867 4
      vertex 28.0555 22.9101 40
      vertex 28.3501 23.0867 40
    endloop
  endfacet
  facet normal -0.514153 0.857698 0
    outer loop
      vertex 28.0555 22.9101 40
      vertex 28.3501 23.0867 4
      vertex 28.0555 22.9101 4
    endloop
  endfacet
  facet normal -0.903939 -0.427661 0
    outer loop
      vertex 26.9133 18.3501 4
      vertex 26.7664 18.6606 40
      vertex 26.7664 18.6606 4
    endloop
  endfacet
  facet normal -0.903939 -0.427661 0
    outer loop
      vertex 26.7664 18.6606 40
      vertex 26.9133 18.3501 4
      vertex 26.9133 18.3501 40
    endloop
  endfacet
  facet normal -0.24281 0.970074 0
    outer loop
      vertex 29.3172 23.4327 4
      vertex 28.984 23.3493 40
      vertex 29.3172 23.4327 40
    endloop
  endfacet
  facet normal -0.24281 0.970074 0
    outer loop
      vertex 28.984 23.3493 40
      vertex 29.3172 23.4327 4
      vertex 28.984 23.3493 4
    endloop
  endfacet
  facet normal -0.857698 -0.514153 0
    outer loop
      vertex 27.0899 18.0555 4
      vertex 26.9133 18.3501 40
      vertex 26.9133 18.3501 4
    endloop
  endfacet
  facet normal -0.857698 -0.514153 0
    outer loop
      vertex 26.9133 18.3501 40
      vertex 27.0899 18.0555 4
      vertex 27.0899 18.0555 40
    endloop
  endfacet
  facet normal 0.24281 -0.970074 0
    outer loop
      vertex 30.6828 16.5673 4
      vertex 31.016 16.6507 40
      vertex 30.6828 16.5673 40
    endloop
  endfacet
  facet normal 0.24281 -0.970074 0
    outer loop
      vertex 31.016 16.6507 40
      vertex 30.6828 16.5673 4
      vertex 31.016 16.6507 4
    endloop
  endfacet
  facet normal -0.595659 -0.803237 0
    outer loop
      vertex 27.7796 17.2945 4
      vertex 28.0555 17.0899 40
      vertex 27.7796 17.2945 40
    endloop
  endfacet
  facet normal -0.595659 -0.803237 -0
    outer loop
      vertex 28.0555 17.0899 40
      vertex 27.7796 17.2945 4
      vertex 28.0555 17.0899 4
    endloop
  endfacet
  facet normal 0.514153 -0.857698 0
    outer loop
      vertex 31.6499 16.9133 4
      vertex 31.9445 17.0899 40
      vertex 31.6499 16.9133 40
    endloop
  endfacet
  facet normal 0.514153 -0.857698 0
    outer loop
      vertex 31.9445 17.0899 40
      vertex 31.6499 16.9133 4
      vertex 31.9445 17.0899 4
    endloop
  endfacet
  facet normal 0.803237 -0.595659 0
    outer loop
      vertex 32.7055 17.7796 40
      vertex 32.9101 18.0555 4
      vertex 32.9101 18.0555 40
    endloop
  endfacet
  facet normal 0.803237 -0.595659 0
    outer loop
      vertex 32.9101 18.0555 4
      vertex 32.7055 17.7796 40
      vertex 32.7055 17.7796 4
    endloop
  endfacet
  facet normal 0.14676 0.989172 -0
    outer loop
      vertex 30.6828 23.4327 4
      vertex 30.3431 23.4831 40
      vertex 30.6828 23.4327 40
    endloop
  endfacet
  facet normal 0.14676 0.989172 0
    outer loop
      vertex 30.3431 23.4831 40
      vertex 30.6828 23.4327 4
      vertex 30.3431 23.4831 4
    endloop
  endfacet
  facet normal -0.595659 0.803237 0
    outer loop
      vertex 28.0555 22.9101 4
      vertex 27.7796 22.7055 40
      vertex 28.0555 22.9101 40
    endloop
  endfacet
  facet normal -0.595659 0.803237 0
    outer loop
      vertex 27.7796 22.7055 40
      vertex 28.0555 22.9101 4
      vertex 27.7796 22.7055 4
    endloop
  endfacet
  facet normal 0.427661 -0.903939 0
    outer loop
      vertex 31.3394 16.7664 4
      vertex 31.6499 16.9133 40
      vertex 31.3394 16.7664 40
    endloop
  endfacet
  facet normal 0.427661 -0.903939 0
    outer loop
      vertex 31.6499 16.9133 40
      vertex 31.3394 16.7664 4
      vertex 31.6499 16.9133 4
    endloop
  endfacet
  facet normal -0.803237 0.595659 0
    outer loop
      vertex 27.0899 21.9445 4
      vertex 27.2945 22.2204 40
      vertex 27.2945 22.2204 4
    endloop
  endfacet
  facet normal -0.803237 0.595659 0
    outer loop
      vertex 27.2945 22.2204 40
      vertex 27.0899 21.9445 4
      vertex 27.0899 21.9445 40
    endloop
  endfacet
  facet normal 0.989172 -0.14676 0
    outer loop
      vertex 33.4327 19.3172 40
      vertex 33.4831 19.6569 4
      vertex 33.4831 19.6569 40
    endloop
  endfacet
  facet normal 0.989172 -0.14676 0
    outer loop
      vertex 33.4831 19.6569 4
      vertex 33.4327 19.3172 40
      vertex 33.4327 19.3172 4
    endloop
  endfacet
  facet normal -0.941557 0.336853 0
    outer loop
      vertex 26.6507 21.016 4
      vertex 26.7664 21.3394 40
      vertex 26.7664 21.3394 4
    endloop
  endfacet
  facet normal -0.941557 0.336853 0
    outer loop
      vertex 26.7664 21.3394 40
      vertex 26.6507 21.016 4
      vertex 26.6507 21.016 40
    endloop
  endfacet
  facet normal 0.427661 0.903939 -0
    outer loop
      vertex 31.6499 23.0867 4
      vertex 31.3394 23.2336 40
      vertex 31.6499 23.0867 40
    endloop
  endfacet
  facet normal 0.427661 0.903939 0
    outer loop
      vertex 31.3394 23.2336 40
      vertex 31.6499 23.0867 4
      vertex 31.3394 23.2336 4
    endloop
  endfacet
  facet normal -0.941557 -0.336853 0
    outer loop
      vertex 26.7664 18.6606 4
      vertex 26.6507 18.984 40
      vertex 26.6507 18.984 4
    endloop
  endfacet
  facet normal -0.941557 -0.336853 0
    outer loop
      vertex 26.6507 18.984 40
      vertex 26.7664 18.6606 4
      vertex 26.7664 18.6606 40
    endloop
  endfacet
  facet normal 0.970074 -0.24281 0
    outer loop
      vertex 33.3493 18.984 40
      vertex 33.4327 19.3172 4
      vertex 33.4327 19.3172 40
    endloop
  endfacet
  facet normal 0.970074 -0.24281 0
    outer loop
      vertex 33.4327 19.3172 4
      vertex 33.3493 18.984 40
      vertex 33.3493 18.984 4
    endloop
  endfacet
  facet normal -0.0491971 0.998789 0
    outer loop
      vertex 30 23.5 4
      vertex 29.6569 23.4831 40
      vertex 30 23.5 40
    endloop
  endfacet
  facet normal -0.0491971 0.998789 0
    outer loop
      vertex 29.6569 23.4831 40
      vertex 30 23.5 4
      vertex 29.6569 23.4831 4
    endloop
  endfacet
  facet normal 0.671454 0.741046 -0
    outer loop
      vertex 32.4749 22.4749 4
      vertex 32.2204 22.7055 40
      vertex 32.4749 22.4749 40
    endloop
  endfacet
  facet normal 0.671454 0.741046 0
    outer loop
      vertex 32.2204 22.7055 40
      vertex 32.4749 22.4749 4
      vertex 32.2204 22.7055 4
    endloop
  endfacet
  facet normal -0.427661 0.903939 0
    outer loop
      vertex 28.6606 23.2336 4
      vertex 28.3501 23.0867 40
      vertex 28.6606 23.2336 40
    endloop
  endfacet
  facet normal -0.427661 0.903939 0
    outer loop
      vertex 28.3501 23.0867 40
      vertex 28.6606 23.2336 4
      vertex 28.3501 23.0867 4
    endloop
  endfacet
  facet normal -0.671454 0.741046 0
    outer loop
      vertex 27.7796 22.7055 4
      vertex 27.5251 22.4749 40
      vertex 27.7796 22.7055 40
    endloop
  endfacet
  facet normal -0.671454 0.741046 0
    outer loop
      vertex 27.5251 22.4749 40
      vertex 27.7796 22.7055 4
      vertex 27.5251 22.4749 4
    endloop
  endfacet
  facet normal 0.336853 -0.941557 0
    outer loop
      vertex 31.016 16.6507 4
      vertex 31.3394 16.7664 40
      vertex 31.016 16.6507 40
    endloop
  endfacet
  facet normal 0.336853 -0.941557 0
    outer loop
      vertex 31.3394 16.7664 40
      vertex 31.016 16.6507 4
      vertex 31.3394 16.7664 4
    endloop
  endfacet
  facet normal -0.336853 0.941557 0
    outer loop
      vertex 28.984 23.3493 4
      vertex 28.6606 23.2336 40
      vertex 28.984 23.3493 40
    endloop
  endfacet
  facet normal -0.336853 0.941557 0
    outer loop
      vertex 28.6606 23.2336 40
      vertex 28.984 23.3493 4
      vertex 28.6606 23.2336 4
    endloop
  endfacet
  facet normal 0.803237 0.595659 0
    outer loop
      vertex 32.9101 21.9445 40
      vertex 32.7055 22.2204 4
      vertex 32.7055 22.2204 40
    endloop
  endfacet
  facet normal 0.803237 0.595659 0
    outer loop
      vertex 32.7055 22.2204 4
      vertex 32.9101 21.9445 40
      vertex 32.9101 21.9445 4
    endloop
  endfacet
  facet normal -0.857698 0.514153 0
    outer loop
      vertex 26.9133 21.6499 4
      vertex 27.0899 21.9445 40
      vertex 27.0899 21.9445 4
    endloop
  endfacet
  facet normal -0.857698 0.514153 0
    outer loop
      vertex 27.0899 21.9445 40
      vertex 26.9133 21.6499 4
      vertex 26.9133 21.6499 40
    endloop
  endfacet
  facet normal 0.998789 -0.0491971 0
    outer loop
      vertex 33.4831 19.6569 40
      vertex 33.5 20 4
      vertex 33.5 20 40
    endloop
  endfacet
  facet normal 0.998789 -0.0491971 0
    outer loop
      vertex 33.5 20 4
      vertex 33.4831 19.6569 40
      vertex 33.4831 19.6569 4
    endloop
  endfacet
  facet normal 0.903939 -0.427661 0
    outer loop
      vertex 33.0867 18.3501 40
      vertex 33.2336 18.6606 4
      vertex 33.2336 18.6606 40
    endloop
  endfacet
  facet normal 0.903939 -0.427661 0
    outer loop
      vertex 33.2336 18.6606 4
      vertex 33.0867 18.3501 40
      vertex 33.0867 18.3501 4
    endloop
  endfacet
  facet normal 0.857698 0.514153 0
    outer loop
      vertex 33.0867 21.6499 40
      vertex 32.9101 21.9445 4
      vertex 32.9101 21.9445 40
    endloop
  endfacet
  facet normal 0.857698 0.514153 0
    outer loop
      vertex 32.9101 21.9445 4
      vertex 33.0867 21.6499 40
      vertex 33.0867 21.6499 4
    endloop
  endfacet
  facet normal 0 0 1
    outer loop
      vertex 33.4831 20.3431 40
      vertex 33.4831 19.6569 40
      vertex 33.5 20 40
    endloop
  endfacet
  facet normal 0 0 1
    outer loop
      vertex 33.4327 20.6828 40
      vertex 33.4831 19.6569 40
      vertex 33.4831 20.3431 40
    endloop
  endfacet
  facet normal 0 0 1
    outer loop
      vertex 33.4327 20.6828 40
      vertex 33.4327 19.3172 40
      vertex 33.4831 19.6569 40
    endloop
  endfacet
  facet normal 0 0 1
    outer loop
      vertex 33.3493 21.016 40
      vertex 33.4327 19.3172 40
      vertex 33.4327 20.6828 40
    endloop
  endfacet
  facet normal 0 0 1
    outer loop
      vertex 33.3493 21.016 40
      vertex 33.3493 18.984 40
      vertex 33.4327 19.3172 40
    endloop
  endfacet
  facet normal 0 0 1
    outer loop
      vertex 33.2336 21.3394 40
      vertex 33.3493 18.984 40
      vertex 33.3493 21.016 40
    endloop
  endfacet
  facet normal 0 0 1
    outer loop
      vertex 33.2336 21.3394 40
      vertex 33.2336 18.6606 40
      vertex 33.3493 18.984 40
    endloop
  endfacet
  facet normal 0 0 1
    outer loop
      vertex 33.0867 21.6499 40
      vertex 33.2336 18.6606 40
      vertex 33.2336 21.3394 40
    endloop
  endfacet
  facet normal 0 0 1
    outer loop
      vertex 33.0867 21.6499 40
      vertex 33.0867 18.3501 40
      vertex 33.2336 18.6606 40
    endloop
  endfacet
  facet normal 0 0 1
    outer loop
      vertex 32.9101 21.9445 40
      vertex 33.0867 18.3501 40
      vertex 33.0867 21.6499 40
    endloop
  endfacet
  facet normal 0 0 1
    outer loop
      vertex 32.9101 21.9445 40
      vertex 32.9101 18.0555 40
      vertex 33.0867 18.3501 40
    endloop
  endfacet
  facet normal 0 0 1
    outer loop
      vertex 32.7055 22.2204 40
      vertex 32.9101 18.0555 40
      vertex 32.9101 21.9445 40
    endloop
  endfacet
  facet normal 0 0 1
    outer loop
      vertex 32.7055 22.2204 40
      vertex 32.7055 17.7796 40
      vertex 32.9101 18.0555 40
    endloop
  endfacet
  facet normal 0 0 1
    outer loop
      vertex 32.4749 22.4749 40
      vertex 32.7055 17.7796 40
      vertex 32.7055 22.2204 40
    endloop
  endfacet
  facet normal 0 0 1
    outer loop
      vertex 32.4749 22.4749 40
      vertex 32.4749 17.5251 40
      vertex 32.7055 17.7796 40
    endloop
  endfacet
  facet normal 0 0 1
    outer loop
      vertex 32.2204 22.7055 40
      vertex 32.4749 17.5251 40
      vertex 32.4749 22.4749 40
    endloop
  endfacet
  facet normal 0 0 1
    outer loop
      vertex 32.2204 22.7055 40
      vertex 32.2204 17.2945 40
      vertex 32.4749 17.5251 40
    endloop
  endfacet
  facet normal 0 0 1
    outer loop
      vertex 31.9445 22.9101 40
      vertex 32.2204 17.2945 40
      vertex 32.2204 22.7055 40
    endloop
  endfacet
  facet normal 0 0 1
    outer loop
      vertex 31.9445 22.9101 40
      vertex 31.9445 17.0899 40
      vertex 32.2204 17.2945 40
    endloop
  endfacet
  facet normal 0 0 1
    outer loop
      vertex 31.6499 23.0867 40
      vertex 31.9445 17.0899 40
      vertex 31.9445 22.9101 40
    endloop
  endfacet
  facet normal 0 0 1
    outer loop
      vertex 31.6499 23.0867 40
      vertex 31.6499 16.9133 40
      vertex 31.9445 17.0899 40
    endloop
  endfacet
  facet normal 0 0 1
    outer loop
      vertex 31.3394 23.2336 40
      vertex 31.6499 16.9133 40
      vertex 31.6499 23.0867 40
    endloop
  endfacet
  facet normal 0 0 1
    outer loop
      vertex 31.3394 23.2336 40
      vertex 31.3394 16.7664 40
      vertex 31.6499 16.9133 40
    endloop
  endfacet
  facet normal 0 0 1
    outer loop
      vertex 31.016 23.3493 40
      vertex 31.3394 16.7664 40
      vertex 31.3394 23.2336 40
    endloop
  endfacet
  facet normal 0 0 1
    outer loop
      vertex 31.016 23.3493 40
      vertex 31.016 16.6507 40
      vertex 31.3394 16.7664 40
    endloop
  endfacet
  facet normal 0 0 1
    outer loop
      vertex 30.6828 23.4327 40
      vertex 31.016 16.6507 40
      vertex 31.016 23.3493 40
    endloop
  endfacet
  facet normal 0 0 1
    outer loop
      vertex 30.6828 23.4327 40
      vertex 30.6828 16.5673 40
      vertex 31.016 16.6507 40
    endloop
  endfacet
  facet normal 0 0 1
    outer loop
      vertex 30.3431 23.4831 40
      vertex 30.6828 16.5673 40
      vertex 30.6828 23.4327 40
    endloop
  endfacet
  facet normal 0 0 1
    outer loop
      vertex 30.3431 23.4831 40
      vertex 30.3431 16.5169 40
      vertex 30.6828 16.5673 40
    endloop
  endfacet
  facet normal 0 0 1
    outer loop
      vertex 30 23.5 40
      vertex 30.3431 16.5169 40
      vertex 30.3431 23.4831 40
    endloop
  endfacet
  facet normal 0 0 1
    outer loop
      vertex 30 23.5 40
      vertex 30 16.5 40
      vertex 30.3431 16.5169 40
    endloop
  endfacet
  facet normal -0 0 1
    outer loop
      vertex 29.6569 23.4831 40
      vertex 30 16.5 40
      vertex 30 23.5 40
    endloop
  endfacet
  facet normal 0 0 1
    outer loop
      vertex 29.6569 23.4831 40
      vertex 29.6569 16.5169 40
      vertex 30 16.5 40
    endloop
  endfacet
  facet normal -0 0 1
    outer loop
      vertex 29.3172 23.4327 40
      vertex 29.6569 16.5169 40
      vertex 29.6569 23.4831 40
    endloop
  endfacet
  facet normal 0 0 1
    outer loop
      vertex 29.3172 23.4327 40
      vertex 29.3172 16.5673 40
      vertex 29.6569 16.5169 40
    endloop
  endfacet
  facet normal -0 0 1
    outer loop
      vertex 28.984 23.3493 40
      vertex 29.3172 16.5673 40
      vertex 29.3172 23.4327 40
    endloop
  endfacet
  facet normal 0 0 1
    outer loop
      vertex 28.984 23.3493 40
      vertex 28.984 16.6507 40
      vertex 29.3172 16.5673 40
    endloop
  endfacet
  facet normal -0 0 1
    outer loop
      vertex 28.6606 23.2336 40
      vertex 28.984 16.6507 40
      vertex 28.984 23.3493 40
    endloop
  endfacet
  facet normal 0 0 1
    outer loop
      vertex 28.6606 23.2336 40
      vertex 28.6606 16.7664 40
      vertex 28.984 16.6507 40
    endloop
  endfacet
  facet normal -0 0 1
    outer loop
      vertex 28.3501 23.0867 40
      vertex 28.6606 16.7664 40
      vertex 28.6606 23.2336 40
    endloop
  endfacet
  facet normal 0 0 1
    outer loop
      vertex 28.3501 23.0867 40
      vertex 28.3501 16.9133 40
      vertex 28.6606 16.7664 40
    endloop
  endfacet
  facet normal -0 0 1
    outer loop
      vertex 28.0555 22.9101 40
      vertex 28.3501 16.9133 40
      vertex 28.3501 23.0867 40
    endloop
  endfacet
  facet normal 0 0 1
    outer loop
      vertex 28.0555 22.9101 40
      vertex 28.0555 17.0899 40
      vertex 28.3501 16.9133 40
    endloop
  endfacet
  facet normal -0 0 1
    outer loop
      vertex 27.7796 22.7055 40
      vertex 28.0555 17.0899 40
      vertex 28.0555 22.9101 40
    endloop
  endfacet
  facet normal 0 0 1
    outer loop
      vertex 27.7796 22.7055 40
      vertex 27.7796 17.2945 40
      vertex 28.0555 17.0899 40
    endloop
  endfacet
  facet normal -0 0 1
    outer loop
      vertex 27.5251 22.4749 40
      vertex 27.7796 17.2945 40
      vertex 27.7796 22.7055 40
    endloop
  endfacet
  facet normal 0 0 1
    outer loop
      vertex 27.5251 22.4749 40
      vertex 27.5251 17.5251 40
      vertex 27.7796 17.2945 40
    endloop
  endfacet
  facet normal -0 0 1
    outer loop
      vertex 27.2945 22.2204 40
      vertex 27.5251 17.5251 40
      vertex 27.5251 22.4749 40
    endloop
  endfacet
  facet normal 0 0 1
    outer loop
      vertex 27.2945 22.2204 40
      vertex 27.2945 17.7796 40
      vertex 27.5251 17.5251 40
    endloop
  endfacet
  facet normal -0 0 1
    outer loop
      vertex 27.0899 21.9445 40
      vertex 27.2945 17.7796 40
      vertex 27.2945 22.2204 40
    endloop
  endfacet
  facet normal 0 0 1
    outer loop
      vertex 27.0899 21.9445 40
      vertex 27.0899 18.0555 40
      vertex 27.2945 17.7796 40
    endloop
  endfacet
  facet normal -0 0 1
    outer loop
      vertex 26.9133 21.6499 40
      vertex 27.0899 18.0555 40
      vertex 27.0899 21.9445 40
    endloop
  endfacet
  facet normal 0 0 1
    outer loop
      vertex 26.9133 21.6499 40
      vertex 26.9133 18.3501 40
      vertex 27.0899 18.0555 40
    endloop
  endfacet
  facet normal -0 0 1
    outer loop
      vertex 26.7664 21.3394 40
      vertex 26.9133 18.3501 40
      vertex 26.9133 21.6499 40
    endloop
  endfacet
  facet normal 0 0 1
    outer loop
      vertex 26.7664 21.3394 40
      vertex 26.7664 18.6606 40
      vertex 26.9133 18.3501 40
    endloop
  endfacet
  facet normal -0 0 1
    outer loop
      vertex 26.6507 21.016 40
      vertex 26.7664 18.6606 40
      vertex 26.7664 21.3394 40
    endloop
  endfacet
  facet normal 0 0 1
    outer loop
      vertex 26.6507 21.016 40
      vertex 26.6507 18.984 40
      vertex 26.7664 18.6606 40
    endloop
  endfacet
  facet normal -0 0 1
    outer loop
      vertex 26.5673 20.6828 40
      vertex 26.6507 18.984 40
      vertex 26.6507 21.016 40
    endloop
  endfacet
  facet normal 0 0 1
    outer loop
      vertex 26.5673 20.6828 40
      vertex 26.5673 19.3172 40
      vertex 26.6507 18.984 40
    endloop
  endfacet
  facet normal -0 0 1
    outer loop
      vertex 26.5169 20.3431 40
      vertex 26.5673 19.3172 40
      vertex 26.5673 20.6828 40
    endloop
  endfacet
  facet normal 0 0 1
    outer loop
      vertex 26.5169 20.3431 40
      vertex 26.5169 19.6569 40
      vertex 26.5673 19.3172 40
    endloop
  endfacet
  facet normal 0 -0 1
    outer loop
      vertex 26.5169 19.6569 40
      vertex 26.5169 20.3431 40
      vertex 26.5 20 40
    endloop
  endfacet
  facet normal -0.671454 -0.741046 0
    outer loop
      vertex 27.5251 17.5251 4
      vertex 27.7796 17.2945 40
      vertex 27.5251 17.5251 40
    endloop
  endfacet
  facet normal -0.671454 -0.741046 -0
    outer loop
      vertex 27.7796 17.2945 40
      vertex 27.5251 17.5251 4
      vertex 27.7796 17.2945 4
    endloop
  endfacet
  facet normal 0.595659 0.803237 -0
    outer loop
      vertex 32.2204 22.7055 4
      vertex 31.9445 22.9101 40
      vertex 32.2204 22.7055 40
    endloop
  endfacet
  facet normal 0.595659 0.803237 0
    outer loop
      vertex 31.9445 22.9101 40
      vertex 32.2204 22.7055 4
      vertex 31.9445 22.9101 4
    endloop
  endfacet
  facet normal -0.514153 -0.857698 0
    outer loop
      vertex 28.0555 17.0899 4
      vertex 28.3501 16.9133 40
      vertex 28.0555 17.0899 40
    endloop
  endfacet
  facet normal -0.514153 -0.857698 -0
    outer loop
      vertex 28.3501 16.9133 40
      vertex 28.0555 17.0899 4
      vertex 28.3501 16.9133 4
    endloop
  endfacet
  facet normal 0.514153 0.857698 -0
    outer loop
      vertex 31.9445 22.9101 4
      vertex 31.6499 23.0867 40
      vertex 31.9445 22.9101 40
    endloop
  endfacet
  facet normal 0.514153 0.857698 0
    outer loop
      vertex 31.6499 23.0867 40
      vertex 31.9445 22.9101 4
      vertex 31.6499 23.0867 4
    endloop
  endfacet
  facet normal 0.14676 -0.989172 0
    outer loop
      vertex 30.3431 16.5169 4
      vertex 30.6828 16.5673 40
      vertex 30.3431 16.5169 40
    endloop
  endfacet
  facet normal 0.14676 -0.989172 0
    outer loop
      vertex 30.6828 16.5673 40
      vertex 30.3431 16.5169 4
      vertex 30.6828 16.5673 4
    endloop
  endfacet
  facet normal 0.941557 0.336853 0
    outer loop
      vertex 33.3493 21.016 40
      vertex 33.2336 21.3394 4
      vertex 33.2336 21.3394 40
    endloop
  endfacet
  facet normal 0.941557 0.336853 0
    outer loop
      vertex 33.2336 21.3394 4
      vertex 33.3493 21.016 40
      vertex 33.3493 21.016 4
    endloop
  endfacet
  facet normal 0.857698 -0.514153 0
    outer loop
      vertex 32.9101 18.0555 40
      vertex 33.0867 18.3501 4
      vertex 33.0867 18.3501 40
    endloop
  endfacet
  facet normal 0.857698 -0.514153 0
    outer loop
      vertex 33.0867 18.3501 4
      vertex 32.9101 18.0555 40
      vertex 32.9101 18.0555 4
    endloop
  endfacet
  facet normal -0.998789 -0.0491971 0
    outer loop
      vertex 26.5169 19.6569 4
      vertex 26.5 20 40
      vertex 26.5 20 4
    endloop
  endfacet
  facet normal -0.998789 -0.0491971 0
    outer loop
      vertex 26.5 20 40
      vertex 26.5169 19.6569 4
      vertex 26.5169 19.6569 40
    endloop
  endfacet
  facet normal 0.941557 -0.336853 0
    outer loop
      vertex 33.2336 18.6606 40
      vertex 33.3493 18.984 4
      vertex 33.3493 18.984 40
    endloop
  endfacet
  facet normal 0.941557 -0.336853 0
    outer loop
      vertex 33.3493 18.984 4
      vertex 33.2336 18.6606 40
      vertex 33.2336 18.6606 4
    endloop
  endfacet
  facet normal 0.741046 0.671454 0
    outer loop
      vertex 32.7055 22.2204 40
      vertex 32.4749 22.4749 4
      vertex 32.4749 22.4749 40
    endloop
  endfacet
  facet normal 0.741046 0.671454 0
    outer loop
      vertex 32.4749 22.4749 4
      vertex 32.7055 22.2204 40
      vertex 32.7055 22.2204 4
    endloop
  endfacet
  facet normal 0.0491971 0.998789 -0
    outer loop
      vertex 30.3431 23.4831 4
      vertex 30 23.5 40
      vertex 30.3431 23.4831 40
    endloop
  endfacet
  facet normal 0.0491971 0.998789 0
    outer loop
      vertex 30 23.5 40
      vertex 30.3431 23.4831 4
      vertex 30 23.5 4
    endloop
  endfacet
  facet normal 0.903939 0.427661 0
    outer loop
      vertex 33.2336 21.3394 40
      vertex 33.0867 21.6499 4
      vertex 33.0867 21.6499 40
    endloop
  endfacet
  facet normal 0.903939 0.427661 0
    outer loop
      vertex 33.0867 21.6499 4
      vertex 33.2336 21.3394 40
      vertex 33.2336 21.3394 4
    endloop
  endfacet
  facet normal -0.14676 -0.989172 0
    outer loop
      vertex 29.3172 16.5673 4
      vertex 29.6569 16.5169 40
      vertex 29.3172 16.5673 40
    endloop
  endfacet
  facet normal -0.14676 -0.989172 -0
    outer loop
      vertex 29.6569 16.5169 40
      vertex 29.3172 16.5673 4
      vertex 29.6569 16.5169 4
    endloop
  endfacet
  facet normal 0.671454 -0.741046 0
    outer loop
      vertex 32.2204 17.2945 4
      vertex 32.4749 17.5251 40
      vertex 32.2204 17.2945 40
    endloop
  endfacet
  facet normal 0.671454 -0.741046 0
    outer loop
      vertex 32.4749 17.5251 40
      vertex 32.2204 17.2945 4
      vertex 32.4749 17.5251 4
    endloop
  endfacet
  facet normal -0.0491971 -0.998789 0
    outer loop
      vertex 29.6569 16.5169 4
      vertex 30 16.5 40
      vertex 29.6569 16.5169 40
    endloop
  endfacet
  facet normal -0.0491971 -0.998789 -0
    outer loop
      vertex 30 16.5 40
      vertex 29.6569 16.5169 4
      vertex 30 16.5 4
    endloop
  endfacet
  facet normal -0.741046 0.671454 0
    outer loop
      vertex 27.2945 22.2204 4
      vertex 27.5251 22.4749 40
      vertex 27.5251 22.4749 4
    endloop
  endfacet
  facet normal -0.741046 0.671454 0
    outer loop
      vertex 27.5251 22.4749 40
      vertex 27.2945 22.2204 4
      vertex 27.2945 22.2204 40
    endloop
  endfacet
  facet normal -0.14676 0.989172 0
    outer loop
      vertex 29.6569 23.4831 4
      vertex 29.3172 23.4327 40
      vertex 29.6569 23.4831 40
    endloop
  endfacet
  facet normal -0.14676 0.989172 0
    outer loop
      vertex 29.3172 23.4327 40
      vertex 29.6569 23.4831 4
      vertex 29.3172 23.4327 4
    endloop
  endfacet
  facet normal -0.903939 0.427661 0
    outer loop
      vertex 26.7664 21.3394 4
      vertex 26.9133 21.6499 40
      vertex 26.9133 21.6499 4
    endloop
  endfacet
  facet normal -0.903939 0.427661 0
    outer loop
      vertex 26.9133 21.6499 40
      vertex 26.7664 21.3394 4
      vertex 26.7664 21.3394 40
    endloop
  endfacet
  facet normal -0.970074 0.24281 0
    outer loop
      vertex 26.5673 20.6828 4
      vertex 26.6507 21.016 40
      vertex 26.6507 21.016 4
    endloop
  endfacet
  facet normal -0.970074 0.24281 0
    outer loop
      vertex 26.6507 21.016 40
      vertex 26.5673 20.6828 4
      vertex 26.5673 20.6828 40
    endloop
  endfacet
  facet normal 0.24281 0.970074 -0
    outer loop
      vertex 31.016 23.3493 4
      vertex 30.6828 23.4327 40
      vertex 31.016 23.3493 40
    endloop
  endfacet
  facet normal 0.24281 0.970074 0
    outer loop
      vertex 30.6828 23.4327 40
      vertex 31.016 23.3493 4
      vertex 30.6828 23.4327 4
    endloop
  endfacet
  facet normal -0.970074 -0.24281 0
    outer loop
      vertex 26.6507 18.984 4
      vertex 26.5673 19.3172 40
      vertex 26.5673 19.3172 4
    endloop
  endfacet
  facet normal -0.970074 -0.24281 0
    outer loop
      vertex 26.5673 19.3172 40
      vertex 26.6507 18.984 4
      vertex 26.6507 18.984 40
    endloop
  endfacet
  facet normal -0.427661 -0.903939 0
    outer loop
      vertex 28.3501 16.9133 4
      vertex 28.6606 16.7664 40
      vertex 28.3501 16.9133 40
    endloop
  endfacet
  facet normal -0.427661 -0.903939 -0
    outer loop
      vertex 28.6606 16.7664 40
      vertex 28.3501 16.9133 4
      vertex 28.6606 16.7664 4
    endloop
  endfacet
  facet normal -0.741046 -0.671454 0
    outer loop
      vertex 27.5251 17.5251 4
      vertex 27.2945 17.7796 40
      vertex 27.2945 17.7796 4
    endloop
  endfacet
  facet normal -0.741046 -0.671454 0
    outer loop
      vertex 27.2945 17.7796 40
      vertex 27.5251 17.5251 4
      vertex 27.5251 17.5251 40
    endloop
  endfacet
  facet normal 0.0491971 -0.998789 0
    outer loop
      vertex 30 16.5 4
      vertex 30.3431 16.5169 40
      vertex 30 16.5 40
    endloop
  endfacet
  facet normal 0.0491971 -0.998789 0
    outer loop
      vertex 30.3431 16.5169 40
      vertex 30 16.5 4
      vertex 30.3431 16.5169 4
    endloop
  endfacet
  facet normal -0.989172 -0.14676 0
    outer loop
      vertex 26.5673 19.3172 4
      vertex 26.5169 19.6569 40
      vertex 26.5169 19.6569 4
    endloop
  endfacet
  facet normal -0.989172 -0.14676 0
    outer loop
      vertex 26.5169 19.6569 40
      vertex 26.5673 19.3172 4
      vertex 26.5673 19.3172 40
    endloop
  endfacet
  facet normal 0.595659 -0.803237 0
    outer loop
      vertex 31.9445 17.0899 4
      vertex 32.2204 17.2945 40
      vertex 31.9445 17.0899 40
    endloop
  endfacet
  facet normal 0.595659 -0.803237 0
    outer loop
      vertex 32.2204 17.2945 40
      vertex 31.9445 17.0899 4
      vertex 32.2204 17.2945 4
    endloop
  endfacet
  facet normal -0.803237 -0.595659 0
    outer loop
      vertex 27.2945 17.7796 4
      vertex 27.0899 18.0555 40
      vertex 27.0899 18.0555 4
    endloop
  endfacet
  facet normal -0.803237 -0.595659 0
    outer loop
      vertex 27.0899 18.0555 40
      vertex 27.2945 17.7796 4
      vertex 27.2945 17.7796 40
    endloop
  endfacet
  facet normal -0.998789 0.0491971 0
    outer loop
      vertex 26.5 20 4
      vertex 26.5169 20.3431 40
      vertex 26.5169 20.3431 4
    endloop
  endfacet
  facet normal -0.998789 0.0491971 0
    outer loop
      vertex 26.5169 20.3431 40
      vertex 26.5 20 4
      vertex 26.5 20 40
    endloop
  endfacet
  facet normal 0.741046 -0.671454 0
    outer loop
      vertex 32.4749 17.5251 40
      vertex 32.7055 17.7796 4
      vertex 32.7055 17.7796 40
    endloop
  endfacet
  facet normal 0.741046 -0.671454 0
    outer loop
      vertex 32.7055 17.7796 4
      vertex 32.4749 17.5251 40
      vertex 32.4749 17.5251 4
    endloop
  endfacet
  facet normal 1 -0 0
    outer loop
      vertex 52.5 7 30
      vertex 52.5 33 4
      vertex 52.5 33 30
    endloop
  endfacet
  facet normal 1 0 0
    outer loop
      vertex 52.5 33 4
      vertex 52.5 7 30
      vertex 52.5 7 4
    endloop
  endfacet
  facet normal 0 0 1
    outer loop
      vertex 52.5 33 30
      vertex 34 20 30
      vertex 52.5 7 30
    endloop
  endfacet
  facet normal 0 0 1
    outer loop
      vertex 52.5 33 30
      vertex 33.9807 20.3921 30
      vertex 34 20 30
    endloop
  endfacet
  facet normal 0 0 1
    outer loop
      vertex 52.5 33 30
      vertex 33.9231 20.7804 30
      vertex 33.9807 20.3921 30
    endloop
  endfacet
  facet normal 0 0 1
    outer loop
      vertex 52.5 33 30
      vertex 33.8278 21.1611 30
      vertex 33.9231 20.7804 30
    endloop
  endfacet
  facet normal 0 0 1
    outer loop
      vertex 52.5 33 30
      vertex 33.6955 21.5307 30
      vertex 33.8278 21.1611 30
    endloop
  endfacet
  facet normal 0 0 1
    outer loop
      vertex 52.5 33 30
      vertex 33.5277 21.8856 30
      vertex 33.6955 21.5307 30
    endloop
  endfacet
  facet normal 0 0 1
    outer loop
      vertex 52.5 33 30
      vertex 33.3259 22.2223 30
      vertex 33.5277 21.8856 30
    endloop
  endfacet
  facet normal 0 0 1
    outer loop
      vertex 52.5 33 30
      vertex 33.092 22.5376 30
      vertex 33.3259 22.2223 30
    endloop
  endfacet
  facet normal 0 0 1
    outer loop
      vertex 52.5 33 30
      vertex 32.8284 22.8284 30
      vertex 33.092 22.5376 30
    endloop
  endfacet
  facet normal 0 0 1
    outer loop
      vertex 52.5 33 30
      vertex 32.5376 23.092 30
      vertex 32.8284 22.8284 30
    endloop
  endfacet
  facet normal 0 0 1
    outer loop
      vertex 52.5 33 30
      vertex 32.2223 23.3259 30
      vertex 32.5376 23.092 30
    endloop
  endfacet
  facet normal 0 0 1
    outer loop
      vertex 52.5 33 30
      vertex 31.8856 23.5277 30
      vertex 32.2223 23.3259 30
    endloop
  endfacet
  facet normal 0 0 1
    outer loop
      vertex 52.5 33 30
      vertex 31.5307 23.6955 30
      vertex 31.8856 23.5277 30
    endloop
  endfacet
  facet normal 0 0 1
    outer loop
      vertex 52.5 33 30
      vertex 31.1611 23.8278 30
      vertex 31.5307 23.6955 30
    endloop
  endfacet
  facet normal 0 0 1
    outer loop
      vertex 52.5 33 30
      vertex 30.7804 23.9231 30
      vertex 31.1611 23.8278 30
    endloop
  endfacet
  facet normal 0 0 1
    outer loop
      vertex 52.5 33 30
      vertex 30.3921 23.9807 30
      vertex 30.7804 23.9231 30
    endloop
  endfacet
  facet normal 0 0 1
    outer loop
      vertex 52.5 33 30
      vertex 30 24 30
      vertex 30.3921 23.9807 30
    endloop
  endfacet
  facet normal -0 0 1
    outer loop
      vertex 7.5 33 30
      vertex 30 24 30
      vertex 52.5 33 30
    endloop
  endfacet
  facet normal 0 0 1
    outer loop
      vertex 30 24 30
      vertex 7.5 33 30
      vertex 29.6079 23.9807 30
    endloop
  endfacet
  facet normal 0 0 1
    outer loop
      vertex 29.6079 23.9807 30
      vertex 7.5 33 30
      vertex 29.2196 23.9231 30
    endloop
  endfacet
  facet normal 0 0 1
    outer loop
      vertex 29.2196 23.9231 30
      vertex 7.5 33 30
      vertex 28.8389 23.8278 30
    endloop
  endfacet
  facet normal 0 0 1
    outer loop
      vertex 26.0193 20.3921 30
      vertex 7.5 33 30
      vertex 26 20 30
    endloop
  endfacet
  facet normal 0 0 1
    outer loop
      vertex 26.0769 20.7804 30
      vertex 7.5 33 30
      vertex 26.0193 20.3921 30
    endloop
  endfacet
  facet normal 0 0 1
    outer loop
      vertex 26.1722 21.1611 30
      vertex 7.5 33 30
      vertex 26.0769 20.7804 30
    endloop
  endfacet
  facet normal 0 0 1
    outer loop
      vertex 26.3045 21.5307 30
      vertex 7.5 33 30
      vertex 26.1722 21.1611 30
    endloop
  endfacet
  facet normal 0 0 1
    outer loop
      vertex 26.4723 21.8856 30
      vertex 7.5 33 30
      vertex 26.3045 21.5307 30
    endloop
  endfacet
  facet normal 0 0 1
    outer loop
      vertex 26.6741 22.2223 30
      vertex 7.5 33 30
      vertex 26.4723 21.8856 30
    endloop
  endfacet
  facet normal 0 0 1
    outer loop
      vertex 26.908 22.5376 30
      vertex 7.5 33 30
      vertex 26.6741 22.2223 30
    endloop
  endfacet
  facet normal 0 0 1
    outer loop
      vertex 27.1716 22.8284 30
      vertex 7.5 33 30
      vertex 26.908 22.5376 30
    endloop
  endfacet
  facet normal 0 0 1
    outer loop
      vertex 27.4624 23.092 30
      vertex 7.5 33 30
      vertex 27.1716 22.8284 30
    endloop
  endfacet
  facet normal 0 0 1
    outer loop
      vertex 27.7777 23.3259 30
      vertex 7.5 33 30
      vertex 27.4624 23.092 30
    endloop
  endfacet
  facet normal 0 0 1
    outer loop
      vertex 28.1144 23.5277 30
      vertex 7.5 33 30
      vertex 27.7777 23.3259 30
    endloop
  endfacet
  facet normal 0 0 1
    outer loop
      vertex 28.4693 23.6955 30
      vertex 7.5 33 30
      vertex 28.1144 23.5277 30
    endloop
  endfacet
  facet normal 0 0 1
    outer loop
      vertex 28.8389 23.8278 30
      vertex 7.5 33 30
      vertex 28.4693 23.6955 30
    endloop
  endfacet
  facet normal -0 0 1
    outer loop
      vertex 33.9807 19.6079 30
      vertex 52.5 7 30
      vertex 34 20 30
    endloop
  endfacet
  facet normal -0 0 1
    outer loop
      vertex 33.9231 19.2196 30
      vertex 52.5 7 30
      vertex 33.9807 19.6079 30
    endloop
  endfacet
  facet normal -0 0 1
    outer loop
      vertex 33.8278 18.8389 30
      vertex 52.5 7 30
      vertex 33.9231 19.2196 30
    endloop
  endfacet
  facet normal -0 0 1
    outer loop
      vertex 33.6955 18.4693 30
      vertex 52.5 7 30
      vertex 33.8278 18.8389 30
    endloop
  endfacet
  facet normal -0 0 1
    outer loop
      vertex 33.5277 18.1144 30
      vertex 52.5 7 30
      vertex 33.6955 18.4693 30
    endloop
  endfacet
  facet normal -0 0 1
    outer loop
      vertex 33.3259 17.7777 30
      vertex 52.5 7 30
      vertex 33.5277 18.1144 30
    endloop
  endfacet
  facet normal -0 0 1
    outer loop
      vertex 33.092 17.4624 30
      vertex 52.5 7 30
      vertex 33.3259 17.7777 30
    endloop
  endfacet
  facet normal -0 0 1
    outer loop
      vertex 32.8284 17.1716 30
      vertex 52.5 7 30
      vertex 33.092 17.4624 30
    endloop
  endfacet
  facet normal -0 0 1
    outer loop
      vertex 32.5376 16.908 30
      vertex 52.5 7 30
      vertex 32.8284 17.1716 30
    endloop
  endfacet
  facet normal -0 0 1
    outer loop
      vertex 32.2223 16.6741 30
      vertex 52.5 7 30
      vertex 32.5376 16.908 30
    endloop
  endfacet
  facet normal -0 0 1
    outer loop
      vertex 31.8856 16.4723 30
      vertex 52.5 7 30
      vertex 32.2223 16.6741 30
    endloop
  endfacet
  facet normal -0 0 1
    outer loop
      vertex 31.5307 16.3045 30
      vertex 52.5 7 30
      vertex 31.8856 16.4723 30
    endloop
  endfacet
  facet normal -0 0 1
    outer loop
      vertex 31.1611 16.1722 30
      vertex 52.5 7 30
      vertex 31.5307 16.3045 30
    endloop
  endfacet
  facet normal -0 0 1
    outer loop
      vertex 30.7804 16.0769 30
      vertex 52.5 7 30
      vertex 31.1611 16.1722 30
    endloop
  endfacet
  facet normal -0 0 1
    outer loop
      vertex 30.3921 16.0193 30
      vertex 52.5 7 30
      vertex 30.7804 16.0769 30
    endloop
  endfacet
  facet normal -0 0 1
    outer loop
      vertex 30 16 30
      vertex 52.5 7 30
      vertex 30.3921 16.0193 30
    endloop
  endfacet
  facet normal 0 0 1
    outer loop
      vertex 7.5 7 30
      vertex 30 16 30
      vertex 29.6079 16.0193 30
    endloop
  endfacet
  facet normal 0 0 1
    outer loop
      vertex 7.5 7 30
      vertex 29.6079 16.0193 30
      vertex 29.2196 16.0769 30
    endloop
  endfacet
  facet normal 0 0 1
    outer loop
      vertex 7.5 7 30
      vertex 29.2196 16.0769 30
      vertex 28.8389 16.1722 30
    endloop
  endfacet
  facet normal 0 0 1
    outer loop
      vertex 7.5 7 30
      vertex 28.8389 16.1722 30
      vertex 28.4693 16.3045 30
    endloop
  endfacet
  facet normal 0 0 1
    outer loop
      vertex 7.5 7 30
      vertex 26 20 30
      vertex 7.5 33 30
    endloop
  endfacet
  facet normal 0 0 1
    outer loop
      vertex 26 20 30
      vertex 7.5 7 30
      vertex 26.0193 19.6079 30
    endloop
  endfacet
  facet normal 0 0 1
    outer loop
      vertex 26.0193 19.6079 30
      vertex 7.5 7 30
      vertex 26.0769 19.2196 30
    endloop
  endfacet
  facet normal 0 0 1
    outer loop
      vertex 26.0769 19.2196 30
      vertex 7.5 7 30
      vertex 26.1722 18.8389 30
    endloop
  endfacet
  facet normal 0 0 1
    outer loop
      vertex 26.1722 18.8389 30
      vertex 7.5 7 30
      vertex 26.3045 18.4693 30
    endloop
  endfacet
  facet normal 0 0 1
    outer loop
      vertex 26.3045 18.4693 30
      vertex 7.5 7 30
      vertex 26.4723 18.1144 30
    endloop
  endfacet
  facet normal 0 0 1
    outer loop
      vertex 26.4723 18.1144 30
      vertex 7.5 7 30
      vertex 26.6741 17.7777 30
    endloop
  endfacet
  facet normal 0 0 1
    outer loop
      vertex 26.6741 17.7777 30
      vertex 7.5 7 30
      vertex 26.908 17.4624 30
    endloop
  endfacet
  facet normal 0 0 1
    outer loop
      vertex 26.908 17.4624 30
      vertex 7.5 7 30
      vertex 27.1716 17.1716 30
    endloop
  endfacet
  facet normal 0 0 1
    outer loop
      vertex 30 16 30
      vertex 7.5 7 30
      vertex 52.5 7 30
    endloop
  endfacet
  facet normal 0 0 1
    outer loop
      vertex 28.1144 16.4723 30
      vertex 7.5 7 30
      vertex 28.4693 16.3045 30
    endloop
  endfacet
  facet normal 0 0 1
    outer loop
      vertex 27.7777 16.6741 30
      vertex 7.5 7 30
      vertex 28.1144 16.4723 30
    endloop
  endfacet
  facet normal 0 0 1
    outer loop
      vertex 27.4624 16.908 30
      vertex 7.5 7 30
      vertex 27.7777 16.6741 30
    endloop
  endfacet
  facet normal 0 0 1
    outer loop
      vertex 27.1716 17.1716 30
      vertex 7.5 7 30
      vertex 27.4624 16.908 30
    endloop
  endfacet
  facet normal -1 0 0
    outer loop
      vertex 7.5 7 4
      vertex 7.5 33 30
      vertex 7.5 33 4
    endloop
  endfacet
  facet normal -1 -0 0
    outer loop
      vertex 7.5 33 30
      vertex 7.5 7 4
      vertex 7.5 7 30
    endloop
  endfacet
  facet normal 0 1 -0
    outer loop
      vertex 52.5 33 4
      vertex 7.5 33 30
      vertex 52.5 33 30
    endloop
  endfacet
  facet normal 0 1 0
    outer loop
      vertex 7.5 33 30
      vertex 52.5 33 4
      vertex 7.5 33 4
    endloop
  endfacet
  facet normal 0 -1 0
    outer loop
      vertex 7.5 7 4
      vertex 52.5 7 30
      vertex 7.5 7 30
    endloop
  endfacet
  facet normal 0 -1 -0
    outer loop
      vertex 52.5 7 30
      vertex 7.5 7 4
      vertex 52.5 7 4
    endloop
  endfacet
  facet normal 0.337014 0.9415 -0
    outer loop
      vertex 28.8389 16.1722 4
      vertex 28.4693 16.3045 30
      vertex 28.8389 16.1722 30
    endloop
  endfacet
  facet normal 0.337014 0.9415 0
    outer loop
      vertex 28.4693 16.3045 30
      vertex 28.8389 16.1722 4
      vertex 28.4693 16.3045 4
    endloop
  endfacet
  facet normal -0.989176 -0.146733 0
    outer loop
      vertex 33.9807 20.3921 4
      vertex 33.9231 20.7804 30
      vertex 33.9231 20.7804 4
    endloop
  endfacet
  facet normal -0.989176 -0.146733 0
    outer loop
      vertex 33.9231 20.7804 30
      vertex 33.9807 20.3921 4
      vertex 33.9807 20.3921 30
    endloop
  endfacet
  facet normal -0.998791 -0.0491626 0
    outer loop
      vertex 34 20 4
      vertex 33.9807 20.3921 30
      vertex 33.9807 20.3921 4
    endloop
  endfacet
  facet normal -0.998791 -0.0491626 0
    outer loop
      vertex 33.9807 20.3921 30
      vertex 34 20 4
      vertex 34 20 30
    endloop
  endfacet
  facet normal -0.970068 -0.242835 0
    outer loop
      vertex 33.9231 20.7804 4
      vertex 33.8278 21.1611 30
      vertex 33.8278 21.1611 4
    endloop
  endfacet
  facet normal -0.970068 -0.242835 0
    outer loop
      vertex 33.8278 21.1611 30
      vertex 33.9231 20.7804 4
      vertex 33.9231 20.7804 30
    endloop
  endfacet
  facet normal 0.989176 -0.146733 0
    outer loop
      vertex 26.0193 20.3921 30
      vertex 26.0769 20.7804 4
      vertex 26.0769 20.7804 30
    endloop
  endfacet
  facet normal 0.989176 -0.146733 0
    outer loop
      vertex 26.0769 20.7804 4
      vertex 26.0193 20.3921 30
      vertex 26.0193 20.3921 4
    endloop
  endfacet
  facet normal 0.242835 0.970068 -0
    outer loop
      vertex 29.2196 16.0769 4
      vertex 28.8389 16.1722 30
      vertex 29.2196 16.0769 30
    endloop
  endfacet
  facet normal 0.242835 0.970068 0
    outer loop
      vertex 28.8389 16.1722 30
      vertex 29.2196 16.0769 4
      vertex 28.8389 16.1722 4
    endloop
  endfacet
  facet normal -0.337014 -0.9415 0
    outer loop
      vertex 31.1611 23.8278 4
      vertex 31.5307 23.6955 30
      vertex 31.1611 23.8278 30
    endloop
  endfacet
  facet normal -0.337014 -0.9415 -0
    outer loop
      vertex 31.5307 23.6955 30
      vertex 31.1611 23.8278 4
      vertex 31.5307 23.6955 4
    endloop
  endfacet
  facet normal 0.514084 -0.85774 0
    outer loop
      vertex 27.7777 23.3259 4
      vertex 28.1144 23.5277 30
      vertex 27.7777 23.3259 30
    endloop
  endfacet
  facet normal 0.514084 -0.85774 0
    outer loop
      vertex 28.1144 23.5277 30
      vertex 27.7777 23.3259 4
      vertex 28.1144 23.5277 4
    endloop
  endfacet
  facet normal 0.904044 0.42744 0
    outer loop
      vertex 26.4723 18.1144 30
      vertex 26.3045 18.4693 4
      vertex 26.3045 18.4693 30
    endloop
  endfacet
  facet normal 0.904044 0.42744 0
    outer loop
      vertex 26.3045 18.4693 4
      vertex 26.4723 18.1144 30
      vertex 26.4723 18.1144 4
    endloop
  endfacet
  facet normal 0.242835 -0.970068 0
    outer loop
      vertex 28.8389 23.8278 4
      vertex 29.2196 23.9231 30
      vertex 28.8389 23.8278 30
    endloop
  endfacet
  facet normal 0.242835 -0.970068 0
    outer loop
      vertex 29.2196 23.9231 30
      vertex 28.8389 23.8278 4
      vertex 29.2196 23.9231 4
    endloop
  endfacet
  facet normal 0.85774 0.514084 0
    outer loop
      vertex 26.6741 17.7777 30
      vertex 26.4723 18.1144 4
      vertex 26.4723 18.1144 30
    endloop
  endfacet
  facet normal 0.85774 0.514084 0
    outer loop
      vertex 26.4723 18.1144 4
      vertex 26.6741 17.7777 30
      vertex 26.6741 17.7777 4
    endloop
  endfacet
  facet normal -0.242835 0.970068 0
    outer loop
      vertex 31.1611 16.1722 4
      vertex 30.7804 16.0769 30
      vertex 31.1611 16.1722 30
    endloop
  endfacet
  facet normal -0.242835 0.970068 0
    outer loop
      vertex 30.7804 16.0769 30
      vertex 31.1611 16.1722 4
      vertex 30.7804 16.0769 4
    endloop
  endfacet
  facet normal 0.595794 0.803137 -0
    outer loop
      vertex 27.7777 16.6741 4
      vertex 27.4624 16.908 30
      vertex 27.7777 16.6741 30
    endloop
  endfacet
  facet normal 0.595794 0.803137 0
    outer loop
      vertex 27.4624 16.908 30
      vertex 27.7777 16.6741 4
      vertex 27.4624 16.908 4
    endloop
  endfacet
  facet normal -0.514084 0.85774 0
    outer loop
      vertex 32.2223 16.6741 4
      vertex 31.8856 16.4723 30
      vertex 32.2223 16.6741 30
    endloop
  endfacet
  facet normal -0.514084 0.85774 0
    outer loop
      vertex 31.8856 16.4723 30
      vertex 32.2223 16.6741 4
      vertex 31.8856 16.4723 4
    endloop
  endfacet
  facet normal -0.803137 0.595794 0
    outer loop
      vertex 33.092 17.4624 4
      vertex 33.3259 17.7777 30
      vertex 33.3259 17.7777 4
    endloop
  endfacet
  facet normal -0.803137 0.595794 0
    outer loop
      vertex 33.3259 17.7777 30
      vertex 33.092 17.4624 4
      vertex 33.092 17.4624 30
    endloop
  endfacet
  facet normal -0.146733 -0.989176 0
    outer loop
      vertex 30.3921 23.9807 4
      vertex 30.7804 23.9231 30
      vertex 30.3921 23.9807 30
    endloop
  endfacet
  facet normal -0.146733 -0.989176 -0
    outer loop
      vertex 30.7804 23.9231 30
      vertex 30.3921 23.9807 4
      vertex 30.7804 23.9231 4
    endloop
  endfacet
  facet normal 0.595794 -0.803137 0
    outer loop
      vertex 27.4624 23.092 4
      vertex 27.7777 23.3259 30
      vertex 27.4624 23.092 30
    endloop
  endfacet
  facet normal 0.595794 -0.803137 0
    outer loop
      vertex 27.7777 23.3259 30
      vertex 27.4624 23.092 4
      vertex 27.7777 23.3259 4
    endloop
  endfacet
  facet normal -0.42744 0.904044 0
    outer loop
      vertex 31.8856 16.4723 4
      vertex 31.5307 16.3045 30
      vertex 31.8856 16.4723 30
    endloop
  endfacet
  facet normal -0.42744 0.904044 0
    outer loop
      vertex 31.5307 16.3045 30
      vertex 31.8856 16.4723 4
      vertex 31.5307 16.3045 4
    endloop
  endfacet
  facet normal 0.803137 -0.595794 0
    outer loop
      vertex 26.6741 22.2223 30
      vertex 26.908 22.5376 4
      vertex 26.908 22.5376 30
    endloop
  endfacet
  facet normal 0.803137 -0.595794 0
    outer loop
      vertex 26.908 22.5376 4
      vertex 26.6741 22.2223 30
      vertex 26.6741 22.2223 4
    endloop
  endfacet
  facet normal -0.989176 0.146733 0
    outer loop
      vertex 33.9231 19.2196 4
      vertex 33.9807 19.6079 30
      vertex 33.9807 19.6079 4
    endloop
  endfacet
  facet normal -0.989176 0.146733 0
    outer loop
      vertex 33.9807 19.6079 30
      vertex 33.9231 19.2196 4
      vertex 33.9231 19.2196 30
    endloop
  endfacet
  facet normal 0.9415 -0.337014 0
    outer loop
      vertex 26.1722 21.1611 30
      vertex 26.3045 21.5307 4
      vertex 26.3045 21.5307 30
    endloop
  endfacet
  facet normal 0.9415 -0.337014 0
    outer loop
      vertex 26.3045 21.5307 4
      vertex 26.1722 21.1611 30
      vertex 26.1722 21.1611 4
    endloop
  endfacet
  facet normal -0.42744 -0.904044 0
    outer loop
      vertex 31.5307 23.6955 4
      vertex 31.8856 23.5277 30
      vertex 31.5307 23.6955 30
    endloop
  endfacet
  facet normal -0.42744 -0.904044 -0
    outer loop
      vertex 31.8856 23.5277 30
      vertex 31.5307 23.6955 4
      vertex 31.8856 23.5277 4
    endloop
  endfacet
  facet normal 0.9415 0.337014 0
    outer loop
      vertex 26.3045 18.4693 30
      vertex 26.1722 18.8389 4
      vertex 26.1722 18.8389 30
    endloop
  endfacet
  facet normal 0.9415 0.337014 0
    outer loop
      vertex 26.1722 18.8389 4
      vertex 26.3045 18.4693 30
      vertex 26.3045 18.4693 4
    endloop
  endfacet
  facet normal -0.970068 0.242835 0
    outer loop
      vertex 33.8278 18.8389 4
      vertex 33.9231 19.2196 30
      vertex 33.9231 19.2196 4
    endloop
  endfacet
  facet normal -0.970068 0.242835 0
    outer loop
      vertex 33.9231 19.2196 30
      vertex 33.8278 18.8389 4
      vertex 33.8278 18.8389 30
    endloop
  endfacet
  facet normal 0.0491626 -0.998791 0
    outer loop
      vertex 29.6079 23.9807 4
      vertex 30 24 30
      vertex 29.6079 23.9807 30
    endloop
  endfacet
  facet normal 0.0491626 -0.998791 0
    outer loop
      vertex 30 24 30
      vertex 29.6079 23.9807 4
      vertex 30 24 4
    endloop
  endfacet
  facet normal -0.671607 -0.740908 0
    outer loop
      vertex 32.5376 23.092 4
      vertex 32.8284 22.8284 30
      vertex 32.5376 23.092 30
    endloop
  endfacet
  facet normal -0.671607 -0.740908 -0
    outer loop
      vertex 32.8284 22.8284 30
      vertex 32.5376 23.092 4
      vertex 32.8284 22.8284 4
    endloop
  endfacet
  facet normal 0.42744 -0.904044 0
    outer loop
      vertex 28.1144 23.5277 4
      vertex 28.4693 23.6955 30
      vertex 28.1144 23.5277 30
    endloop
  endfacet
  facet normal 0.42744 -0.904044 0
    outer loop
      vertex 28.4693 23.6955 30
      vertex 28.1144 23.5277 4
      vertex 28.4693 23.6955 4
    endloop
  endfacet
  facet normal 0.671607 -0.740908 0
    outer loop
      vertex 27.1716 22.8284 4
      vertex 27.4624 23.092 30
      vertex 27.1716 22.8284 30
    endloop
  endfacet
  facet normal 0.671607 -0.740908 0
    outer loop
      vertex 27.4624 23.092 30
      vertex 27.1716 22.8284 4
      vertex 27.4624 23.092 4
    endloop
  endfacet
  facet normal -0.337014 0.9415 0
    outer loop
      vertex 31.5307 16.3045 4
      vertex 31.1611 16.1722 30
      vertex 31.5307 16.3045 30
    endloop
  endfacet
  facet normal -0.337014 0.9415 0
    outer loop
      vertex 31.1611 16.1722 30
      vertex 31.5307 16.3045 4
      vertex 31.1611 16.1722 4
    endloop
  endfacet
  facet normal 0.337014 -0.9415 0
    outer loop
      vertex 28.4693 23.6955 4
      vertex 28.8389 23.8278 30
      vertex 28.4693 23.6955 30
    endloop
  endfacet
  facet normal 0.337014 -0.9415 0
    outer loop
      vertex 28.8389 23.8278 30
      vertex 28.4693 23.6955 4
      vertex 28.8389 23.8278 4
    endloop
  endfacet
  facet normal -0.803137 -0.595794 0
    outer loop
      vertex 33.3259 22.2223 4
      vertex 33.092 22.5376 30
      vertex 33.092 22.5376 4
    endloop
  endfacet
  facet normal -0.803137 -0.595794 0
    outer loop
      vertex 33.092 22.5376 30
      vertex 33.3259 22.2223 4
      vertex 33.3259 22.2223 30
    endloop
  endfacet
  facet normal 0.85774 -0.514084 0
    outer loop
      vertex 26.4723 21.8856 30
      vertex 26.6741 22.2223 4
      vertex 26.6741 22.2223 30
    endloop
  endfacet
  facet normal 0.85774 -0.514084 0
    outer loop
      vertex 26.6741 22.2223 4
      vertex 26.4723 21.8856 30
      vertex 26.4723 21.8856 4
    endloop
  endfacet
  facet normal -0.998791 0.0491626 0
    outer loop
      vertex 33.9807 19.6079 4
      vertex 34 20 30
      vertex 34 20 4
    endloop
  endfacet
  facet normal -0.998791 0.0491626 0
    outer loop
      vertex 34 20 30
      vertex 33.9807 19.6079 4
      vertex 33.9807 19.6079 30
    endloop
  endfacet
  facet normal -0.904044 0.42744 0
    outer loop
      vertex 33.5277 18.1144 4
      vertex 33.6955 18.4693 30
      vertex 33.6955 18.4693 4
    endloop
  endfacet
  facet normal -0.904044 0.42744 0
    outer loop
      vertex 33.6955 18.4693 30
      vertex 33.5277 18.1144 4
      vertex 33.5277 18.1144 30
    endloop
  endfacet
  facet normal -0.85774 -0.514084 0
    outer loop
      vertex 33.5277 21.8856 4
      vertex 33.3259 22.2223 30
      vertex 33.3259 22.2223 4
    endloop
  endfacet
  facet normal -0.85774 -0.514084 0
    outer loop
      vertex 33.3259 22.2223 30
      vertex 33.5277 21.8856 4
      vertex 33.5277 21.8856 30
    endloop
  endfacet
  facet normal 0.671607 0.740908 -0
    outer loop
      vertex 27.4624 16.908 4
      vertex 27.1716 17.1716 30
      vertex 27.4624 16.908 30
    endloop
  endfacet
  facet normal 0.671607 0.740908 0
    outer loop
      vertex 27.1716 17.1716 30
      vertex 27.4624 16.908 4
      vertex 27.1716 17.1716 4
    endloop
  endfacet
  facet normal -0.595794 -0.803137 0
    outer loop
      vertex 32.2223 23.3259 4
      vertex 32.5376 23.092 30
      vertex 32.2223 23.3259 30
    endloop
  endfacet
  facet normal -0.595794 -0.803137 -0
    outer loop
      vertex 32.5376 23.092 30
      vertex 32.2223 23.3259 4
      vertex 32.5376 23.092 4
    endloop
  endfacet
  facet normal 0.514084 0.85774 -0
    outer loop
      vertex 28.1144 16.4723 4
      vertex 27.7777 16.6741 30
      vertex 28.1144 16.4723 30
    endloop
  endfacet
  facet normal 0.514084 0.85774 0
    outer loop
      vertex 27.7777 16.6741 30
      vertex 28.1144 16.4723 4
      vertex 27.7777 16.6741 4
    endloop
  endfacet
  facet normal -0.514084 -0.85774 0
    outer loop
      vertex 31.8856 23.5277 4
      vertex 32.2223 23.3259 30
      vertex 31.8856 23.5277 30
    endloop
  endfacet
  facet normal -0.514084 -0.85774 -0
    outer loop
      vertex 32.2223 23.3259 30
      vertex 31.8856 23.5277 4
      vertex 32.2223 23.3259 4
    endloop
  endfacet
  facet normal -0.146733 0.989176 0
    outer loop
      vertex 30.7804 16.0769 4
      vertex 30.3921 16.0193 30
      vertex 30.7804 16.0769 30
    endloop
  endfacet
  facet normal -0.146733 0.989176 0
    outer loop
      vertex 30.3921 16.0193 30
      vertex 30.7804 16.0769 4
      vertex 30.3921 16.0193 4
    endloop
  endfacet
  facet normal -0.9415 -0.337014 0
    outer loop
      vertex 33.8278 21.1611 4
      vertex 33.6955 21.5307 30
      vertex 33.6955 21.5307 4
    endloop
  endfacet
  facet normal -0.9415 -0.337014 0
    outer loop
      vertex 33.6955 21.5307 30
      vertex 33.8278 21.1611 4
      vertex 33.8278 21.1611 30
    endloop
  endfacet
  facet normal -0.85774 0.514084 0
    outer loop
      vertex 33.3259 17.7777 4
      vertex 33.5277 18.1144 30
      vertex 33.5277 18.1144 4
    endloop
  endfacet
  facet normal -0.85774 0.514084 0
    outer loop
      vertex 33.5277 18.1144 30
      vertex 33.3259 17.7777 4
      vertex 33.3259 17.7777 30
    endloop
  endfacet
  facet normal 0.998791 0.0491626 0
    outer loop
      vertex 26.0193 19.6079 30
      vertex 26 20 4
      vertex 26 20 30
    endloop
  endfacet
  facet normal 0.998791 0.0491626 0
    outer loop
      vertex 26 20 4
      vertex 26.0193 19.6079 30
      vertex 26.0193 19.6079 4
    endloop
  endfacet
  facet normal -0.9415 0.337014 0
    outer loop
      vertex 33.6955 18.4693 4
      vertex 33.8278 18.8389 30
      vertex 33.8278 18.8389 4
    endloop
  endfacet
  facet normal -0.9415 0.337014 0
    outer loop
      vertex 33.8278 18.8389 30
      vertex 33.6955 18.4693 4
      vertex 33.6955 18.4693 30
    endloop
  endfacet
  facet normal -0.740908 -0.671607 0
    outer loop
      vertex 33.092 22.5376 4
      vertex 32.8284 22.8284 30
      vertex 32.8284 22.8284 4
    endloop
  endfacet
  facet normal -0.740908 -0.671607 0
    outer loop
      vertex 32.8284 22.8284 30
      vertex 33.092 22.5376 4
      vertex 33.092 22.5376 30
    endloop
  endfacet
  facet normal -0.0491626 -0.998791 0
    outer loop
      vertex 30 24 4
      vertex 30.3921 23.9807 30
      vertex 30 24 30
    endloop
  endfacet
  facet normal -0.0491626 -0.998791 -0
    outer loop
      vertex 30.3921 23.9807 30
      vertex 30 24 4
      vertex 30.3921 23.9807 4
    endloop
  endfacet
  facet normal -0.904044 -0.42744 0
    outer loop
      vertex 33.6955 21.5307 4
      vertex 33.5277 21.8856 30
      vertex 33.5277 21.8856 4
    endloop
  endfacet
  facet normal -0.904044 -0.42744 0
    outer loop
      vertex 33.5277 21.8856 30
      vertex 33.6955 21.5307 4
      vertex 33.6955 21.5307 30
    endloop
  endfacet
  facet normal 0.146733 0.989176 -0
    outer loop
      vertex 29.6079 16.0193 4
      vertex 29.2196 16.0769 30
      vertex 29.6079 16.0193 30
    endloop
  endfacet
  facet normal 0.146733 0.989176 0
    outer loop
      vertex 29.2196 16.0769 30
      vertex 29.6079 16.0193 4
      vertex 29.2196 16.0769 4
    endloop
  endfacet
  facet normal -0.671607 0.740908 0
    outer loop
      vertex 32.8284 17.1716 4
      vertex 32.5376 16.908 30
      vertex 32.8284 17.1716 30
    endloop
  endfacet
  facet normal -0.671607 0.740908 0
    outer loop
      vertex 32.5376 16.908 30
      vertex 32.8284 17.1716 4
      vertex 32.5376 16.908 4
    endloop
  endfacet
  facet normal 0.0491626 0.998791 -0
    outer loop
      vertex 30 16 4
      vertex 29.6079 16.0193 30
      vertex 30 16 30
    endloop
  endfacet
  facet normal 0.0491626 0.998791 0
    outer loop
      vertex 29.6079 16.0193 30
      vertex 30 16 4
      vertex 29.6079 16.0193 4
    endloop
  endfacet
  facet normal 0.740908 -0.671607 0
    outer loop
      vertex 26.908 22.5376 30
      vertex 27.1716 22.8284 4
      vertex 27.1716 22.8284 30
    endloop
  endfacet
  facet normal 0.740908 -0.671607 0
    outer loop
      vertex 27.1716 22.8284 4
      vertex 26.908 22.5376 30
      vertex 26.908 22.5376 4
    endloop
  endfacet
  facet normal 0.146733 -0.989176 0
    outer loop
      vertex 29.2196 23.9231 4
      vertex 29.6079 23.9807 30
      vertex 29.2196 23.9231 30
    endloop
  endfacet
  facet normal 0.146733 -0.989176 0
    outer loop
      vertex 29.6079 23.9807 30
      vertex 29.2196 23.9231 4
      vertex 29.6079 23.9807 4
    endloop
  endfacet
  facet normal 0.904044 -0.42744 0
    outer loop
      vertex 26.3045 21.5307 30
      vertex 26.4723 21.8856 4
      vertex 26.4723 21.8856 30
    endloop
  endfacet
  facet normal 0.904044 -0.42744 0
    outer loop
      vertex 26.4723 21.8856 4
      vertex 26.3045 21.5307 30
      vertex 26.3045 21.5307 4
    endloop
  endfacet
  facet normal 0.970068 -0.242835 0
    outer loop
      vertex 26.0769 20.7804 30
      vertex 26.1722 21.1611 4
      vertex 26.1722 21.1611 30
    endloop
  endfacet
  facet normal 0.970068 -0.242835 0
    outer loop
      vertex 26.1722 21.1611 4
      vertex 26.0769 20.7804 30
      vertex 26.0769 20.7804 4
    endloop
  endfacet
  facet normal -0.242835 -0.970068 0
    outer loop
      vertex 30.7804 23.9231 4
      vertex 31.1611 23.8278 30
      vertex 30.7804 23.9231 30
    endloop
  endfacet
  facet normal -0.242835 -0.970068 -0
    outer loop
      vertex 31.1611 23.8278 30
      vertex 30.7804 23.9231 4
      vertex 31.1611 23.8278 4
    endloop
  endfacet
  facet normal 0.970068 0.242835 0
    outer loop
      vertex 26.1722 18.8389 30
      vertex 26.0769 19.2196 4
      vertex 26.0769 19.2196 30
    endloop
  endfacet
  facet normal 0.970068 0.242835 0
    outer loop
      vertex 26.0769 19.2196 4
      vertex 26.1722 18.8389 30
      vertex 26.1722 18.8389 4
    endloop
  endfacet
  facet normal 0.42744 0.904044 -0
    outer loop
      vertex 28.4693 16.3045 4
      vertex 28.1144 16.4723 30
      vertex 28.4693 16.3045 30
    endloop
  endfacet
  facet normal 0.42744 0.904044 0
    outer loop
      vertex 28.1144 16.4723 30
      vertex 28.4693 16.3045 4
      vertex 28.1144 16.4723 4
    endloop
  endfacet
  facet normal 0.740908 0.671607 0
    outer loop
      vertex 27.1716 17.1716 30
      vertex 26.908 17.4624 4
      vertex 26.908 17.4624 30
    endloop
  endfacet
  facet normal 0.740908 0.671607 0
    outer loop
      vertex 26.908 17.4624 4
      vertex 27.1716 17.1716 30
      vertex 27.1716 17.1716 4
    endloop
  endfacet
  facet normal -0.0491626 0.998791 0
    outer loop
      vertex 30.3921 16.0193 4
      vertex 30 16 30
      vertex 30.3921 16.0193 30
    endloop
  endfacet
  facet normal -0.0491626 0.998791 0
    outer loop
      vertex 30 16 30
      vertex 30.3921 16.0193 4
      vertex 30 16 4
    endloop
  endfacet
  facet normal 0.989176 0.146733 0
    outer loop
      vertex 26.0769 19.2196 30
      vertex 26.0193 19.6079 4
      vertex 26.0193 19.6079 30
    endloop
  endfacet
  facet normal 0.989176 0.146733 0
    outer loop
      vertex 26.0193 19.6079 4
      vertex 26.0769 19.2196 30
      vertex 26.0769 19.2196 4
    endloop
  endfacet
  facet normal -0.595794 0.803137 0
    outer loop
      vertex 32.5376 16.908 4
      vertex 32.2223 16.6741 30
      vertex 32.5376 16.908 30
    endloop
  endfacet
  facet normal -0.595794 0.803137 0
    outer loop
      vertex 32.2223 16.6741 30
      vertex 32.5376 16.908 4
      vertex 32.2223 16.6741 4
    endloop
  endfacet
  facet normal 0.803137 0.595794 0
    outer loop
      vertex 26.908 17.4624 30
      vertex 26.6741 17.7777 4
      vertex 26.6741 17.7777 30
    endloop
  endfacet
  facet normal 0.803137 0.595794 0
    outer loop
      vertex 26.6741 17.7777 4
      vertex 26.908 17.4624 30
      vertex 26.908 17.4624 4
    endloop
  endfacet
  facet normal 0.998791 -0.0491626 0
    outer loop
      vertex 26 20 30
      vertex 26.0193 20.3921 4
      vertex 26.0193 20.3921 30
    endloop
  endfacet
  facet normal 0.998791 -0.0491626 0
    outer loop
      vertex 26.0193 20.3921 4
      vertex 26 20 30
      vertex 26 20 4
    endloop
  endfacet
  facet normal -0.740908 0.671607 0
    outer loop
      vertex 32.8284 17.1716 4
      vertex 33.092 17.4624 30
      vertex 33.092 17.4624 4
    endloop
  endfacet
  facet normal -0.740908 0.671607 0
    outer loop
      vertex 33.092 17.4624 30
      vertex 32.8284 17.1716 4
      vertex 32.8284 17.1716 30
    endloop
  endfacet
endsolid OpenSCAD_Model
